<svg xmlns="http://www.w3.org/2000/svg" xml:space="preserve" width="2400" height="1350"><defs><clipPath id="a" clipPathUnits="userSpaceOnUse"><path d="M0 1080V0h1920v1080H0z"/></clipPath></defs><g clip-path="url(#a)" transform="matrix(1.25 0 0 -1.25 0 1350)"><path d="M0-1080h213.36v67.5H0v-67.5z" style="fill:#f8f8f8;fill-opacity:1;fill-rule:nonzero;stroke:none" transform="scale(1 -1)"/><path d="M213.36-1080h213.36v67.5H213.36v-67.5z" style="fill:#efefef;fill-opacity:1;fill-rule:nonzero;stroke:none" transform="scale(1 -1)"/><path d="M426.72-1080h213.36v33.75H426.72V-1080z" style="fill:#e1e1e1;fill-opacity:1;fill-rule:nonzero;stroke:none" transform="scale(1 -1)"/><path d="M426.72-1046.25h213.36v33.75H426.72v-33.75z" style="fill:#e3e3e3;fill-opacity:1;fill-rule:nonzero;stroke:none" transform="scale(1 -1)"/><path d="M640.08-1080h213.36v33.75H640.08V-1080z" style="fill:#dedede;fill-opacity:1;fill-rule:nonzero;stroke:none" transform="scale(1 -1)"/><path d="M640.08-1046.25h213.36v33.75H640.08v-33.75z" style="fill:#d7d7d7;fill-opacity:1;fill-rule:nonzero;stroke:none" transform="scale(1 -1)"/><path d="M853.44-1080h213.36v67.5H853.44v-67.5z" style="fill:#cecece;fill-opacity:1;fill-rule:nonzero;stroke:none" transform="scale(1 -1)"/><path d="M1066.8-1080h213.36v67.5H1066.8v-67.5z" style="fill:#b8b8b8;fill-opacity:1;fill-rule:nonzero;stroke:none" transform="scale(1 -1)"/><path d="M1280.16-1080h213.36v67.5h-213.36v-67.5z" style="fill:#afafaf;fill-opacity:1;fill-rule:nonzero;stroke:none" transform="scale(1 -1)"/><path d="M1493.52-1080h213.36v67.5h-213.36v-67.5z" style="fill:#9e9e9e;fill-opacity:1;fill-rule:nonzero;stroke:none" transform="scale(1 -1)"/><path d="M1706.88-1080h213.36v67.5h-213.36v-67.5z" style="fill:#8f8f8f;fill-opacity:1;fill-rule:nonzero;stroke:none" transform="scale(1 -1)"/><path d="M0-1012.5h213.36v67.5H0v-67.5z" style="fill:#efefef;fill-opacity:1;fill-rule:nonzero;stroke:none" transform="scale(1 -1)"/><path d="M213.36-1012.5h213.36v67.5H213.36v-67.5z" style="fill:#ececec;fill-opacity:1;fill-rule:nonzero;stroke:none" transform="scale(1 -1)"/><path d="M426.72-1012.5h213.36v67.5H426.72v-67.5z" style="fill:#e4e4e4;fill-opacity:1;fill-rule:nonzero;stroke:none" transform="scale(1 -1)"/><path d="M640.08-1012.5h213.36v67.5H640.08v-67.5z" style="fill:#d4d4d4;fill-opacity:1;fill-rule:nonzero;stroke:none" transform="scale(1 -1)"/><path d="M853.44-1012.5h213.36v67.5H853.44v-67.5z" style="fill:#c9c9c9;fill-opacity:1;fill-rule:nonzero;stroke:none" transform="scale(1 -1)"/><path d="M1066.8-1012.5h213.36v67.5H1066.8v-67.5z" style="fill:#b4b4b4;fill-opacity:1;fill-rule:nonzero;stroke:none" transform="scale(1 -1)"/><path d="M1280.16-1012.5h213.36v67.5h-213.36v-67.5z" style="fill:#a8a8a8;fill-opacity:1;fill-rule:nonzero;stroke:none" transform="scale(1 -1)"/><path d="M1493.52-1012.5h213.36v67.5h-213.36v-67.5z" style="fill:#979797;fill-opacity:1;fill-rule:nonzero;stroke:none" transform="scale(1 -1)"/><path d="M1706.88-1012.5v67.5h106.68v-67.5h-106.68z" style="fill:#868686;fill-opacity:1;fill-rule:nonzero;stroke:none" transform="scale(1 -1)"/><path d="M1813.56-1012.5v67.5h106.68v-67.5h-106.68z" style="fill:#7e7e7e;fill-opacity:1;fill-rule:nonzero;stroke:none" transform="scale(1 -1)"/><path d="M0-945h213.36v67.5H0V-945z" style="fill:#eaeaea;fill-opacity:1;fill-rule:nonzero;stroke:none" transform="scale(1 -1)"/><path d="M213.36-945h213.36v33.75H213.36V-945z" style="fill:#e8e8e8;fill-opacity:1;fill-rule:nonzero;stroke:none" transform="scale(1 -1)"/><path d="M213.36-911.25h213.36v33.75H213.36v-33.75zM426.72-945h213.36v33.75H426.72V-945z" style="fill:#e4e4e4;fill-opacity:1;fill-rule:nonzero;stroke:none" transform="scale(1 -1)"/><path d="M426.72-911.25h213.36v33.75H426.72v-33.75z" style="fill:#dfdfdf;fill-opacity:1;fill-rule:nonzero;stroke:none" transform="scale(1 -1)"/><path d="M640.08-945h213.36v67.5H640.08V-945z" style="fill:#d4d4d4;fill-opacity:1;fill-rule:nonzero;stroke:none" transform="scale(1 -1)"/><path d="M853.44-945h213.36v67.5H853.44V-945z" style="fill:#c1c1c1;fill-opacity:1;fill-rule:nonzero;stroke:none" transform="scale(1 -1)"/><path d="M1066.8-945h213.36v67.5H1066.8V-945z" style="fill:#b9b9b9;fill-opacity:1;fill-rule:nonzero;stroke:none" transform="scale(1 -1)"/><path d="M1280.16-945h213.36v67.5h-213.36V-945z" style="fill:#a6a6a6;fill-opacity:1;fill-rule:nonzero;stroke:none" transform="scale(1 -1)"/><path d="M1493.52-945v67.5h106.68V-945h-106.68z" style="fill:#979797;fill-opacity:1;fill-rule:nonzero;stroke:none" transform="scale(1 -1)"/><path d="M1600.2-945v67.5h106.68V-945H1600.2z" style="fill:#8a8a8a;fill-opacity:1;fill-rule:nonzero;stroke:none" transform="scale(1 -1)"/><path d="M1706.88-945v67.5h106.68V-945h-106.68z" style="fill:#7e7e7e;fill-opacity:1;fill-rule:nonzero;stroke:none" transform="scale(1 -1)"/><path d="M1813.56-945v67.5h106.68V-945h-106.68z" style="fill:#787878;fill-opacity:1;fill-rule:nonzero;stroke:none" transform="scale(1 -1)"/><path d="M0-877.5h213.36v33.75H0v-33.75zM0-843.75h213.36V-810H0v-33.75z" style="fill:#e1e1e1;fill-opacity:1;fill-rule:nonzero;stroke:none" transform="scale(1 -1)"/><path d="M213.36-877.5h213.36v33.75H213.36v-33.75z" style="fill:#e0e0e0;fill-opacity:1;fill-rule:nonzero;stroke:none" transform="scale(1 -1)"/><path d="M213.36-843.75h213.36V-810H213.36v-33.75z" style="fill:#dadada;fill-opacity:1;fill-rule:nonzero;stroke:none" transform="scale(1 -1)"/><path d="M426.72-877.5v67.5H533.4v-67.5H426.72z" style="fill:#d8d8d8;fill-opacity:1;fill-rule:nonzero;stroke:none" transform="scale(1 -1)"/><path d="M533.4-877.5v67.5h106.68v-67.5H533.4z" style="fill:#d3d3d3;fill-opacity:1;fill-rule:nonzero;stroke:none" transform="scale(1 -1)"/><path d="M640.08-877.5v67.5h106.68v-67.5H640.08z" style="fill:#cdcdcd;fill-opacity:1;fill-rule:nonzero;stroke:none" transform="scale(1 -1)"/><path d="M746.76-877.5h106.68v33.75H746.76v-33.75z" style="fill:#c7c7c7;fill-opacity:1;fill-rule:nonzero;stroke:none" transform="scale(1 -1)"/><path d="M746.76-843.75h106.68V-810H746.76v-33.75z" style="fill:#c4c4c4;fill-opacity:1;fill-rule:nonzero;stroke:none" transform="scale(1 -1)"/><path d="M853.44-877.5h106.68v33.75H853.44v-33.75z" style="fill:#c1c1c1;fill-opacity:1;fill-rule:nonzero;stroke:none" transform="scale(1 -1)"/><path d="M853.44-843.75h106.68V-810H853.44v-33.75z" style="fill:#bbb;fill-opacity:1;fill-rule:nonzero;stroke:none" transform="scale(1 -1)"/><path d="M960.12-877.5v67.5h106.68v-67.5H960.12z" style="fill:#b8b8b8;fill-opacity:1;fill-rule:nonzero;stroke:none" transform="scale(1 -1)"/><path d="M1066.8-877.5h213.36v67.5H1066.8v-67.5z" style="fill:#b0b0b0;fill-opacity:1;fill-rule:nonzero;stroke:none" transform="scale(1 -1)"/><path d="M1280.16-877.5h213.36v67.5h-213.36v-67.5z" style="fill:#a6a6a6;fill-opacity:1;fill-rule:nonzero;stroke:none" transform="scale(1 -1)"/><path d="M1493.52-877.5h213.36v67.5h-213.36v-67.5z" style="fill:#8f8f8f;fill-opacity:1;fill-rule:nonzero;stroke:none" transform="scale(1 -1)"/><path d="M1706.88-877.5h213.36v67.5h-213.36v-67.5z" style="fill:#7b7b7b;fill-opacity:1;fill-rule:nonzero;stroke:none" transform="scale(1 -1)"/><path d="M0-810h213.36v67.5H0V-810z" style="fill:#e1e1e1;fill-opacity:1;fill-rule:nonzero;stroke:none" transform="scale(1 -1)"/><path d="M213.36-810h213.36v67.5H213.36V-810z" style="fill:#d6d6d6;fill-opacity:1;fill-rule:nonzero;stroke:none" transform="scale(1 -1)"/><path d="M426.72-810v67.5H533.4V-810H426.72z" style="fill:#d3d3d3;fill-opacity:1;fill-rule:nonzero;stroke:none" transform="scale(1 -1)"/><path d="M533.4-810h106.68v33.75H533.4V-810z" style="fill:#d1d1d1;fill-opacity:1;fill-rule:nonzero;stroke:none" transform="scale(1 -1)"/><path d="M533.4-776.25h106.68v33.75H533.4v-33.75z" style="fill:#cecece;fill-opacity:1;fill-rule:nonzero;stroke:none" transform="scale(1 -1)"/><path d="M640.08-810h106.68v33.75H640.08V-810z" style="fill:#cdcdcd;fill-opacity:1;fill-rule:nonzero;stroke:none" transform="scale(1 -1)"/><path d="M640.08-776.25h106.68v33.75H640.08v-33.75z" style="fill:#c8c8c8;fill-opacity:1;fill-rule:nonzero;stroke:none" transform="scale(1 -1)"/><path d="M746.76-810v67.5h106.68V-810H746.76z" style="fill:#c1c1c1;fill-opacity:1;fill-rule:nonzero;stroke:none" transform="scale(1 -1)"/><path d="M853.44-810h213.36v67.5H853.44V-810z" style="fill:#b4b4b4;fill-opacity:1;fill-rule:nonzero;stroke:none" transform="scale(1 -1)"/><path d="M1066.8-810h213.36v33.75H1066.8V-810z" style="fill:#aaa;fill-opacity:1;fill-rule:nonzero;stroke:none" transform="scale(1 -1)"/><path d="M1066.8-776.25h213.36v33.75H1066.8v-33.75z" style="fill:#a5a5a5;fill-opacity:1;fill-rule:nonzero;stroke:none" transform="scale(1 -1)"/><path d="M1280.16-810h213.36v33.75h-213.36V-810z" style="fill:#9d9d9d;fill-opacity:1;fill-rule:nonzero;stroke:none" transform="scale(1 -1)"/><path d="M1280.16-776.25h213.36v33.75h-213.36v-33.75z" style="fill:#949494;fill-opacity:1;fill-rule:nonzero;stroke:none" transform="scale(1 -1)"/><path d="M1493.52-810v67.5h106.68V-810h-106.68z" style="fill:#8a8a8a;fill-opacity:1;fill-rule:nonzero;stroke:none" transform="scale(1 -1)"/><path d="M1600.2-810v67.5h106.68V-810H1600.2z" style="fill:#828282;fill-opacity:1;fill-rule:nonzero;stroke:none" transform="scale(1 -1)"/><path d="M1706.88-810h106.68v33.75h-106.68V-810z" style="fill:#7b7b7b;fill-opacity:1;fill-rule:nonzero;stroke:none" transform="scale(1 -1)"/><path d="M1706.88-776.25h106.68v33.75h-106.68v-33.75z" style="fill:#777;fill-opacity:1;fill-rule:nonzero;stroke:none" transform="scale(1 -1)"/><path d="M1813.56-810h106.68v33.75h-106.68V-810z" style="fill:#747474;fill-opacity:1;fill-rule:nonzero;stroke:none" transform="scale(1 -1)"/><path d="M1813.56-776.25h106.68v33.75h-106.68v-33.75z" style="fill:#707070;fill-opacity:1;fill-rule:nonzero;stroke:none" transform="scale(1 -1)"/><path d="M0-742.5h213.36v67.5H0v-67.5z" style="fill:#e1e1e1;fill-opacity:1;fill-rule:nonzero;stroke:none" transform="scale(1 -1)"/><path d="M213.36-742.5h213.36v33.75H213.36v-33.75zM213.36-708.75h213.36V-675H213.36v-33.75z" style="fill:#d6d6d6;fill-opacity:1;fill-rule:nonzero;stroke:none" transform="scale(1 -1)"/><path d="M426.72-742.5h213.36v33.75H426.72v-33.75z" style="fill:#d0d0d0;fill-opacity:1;fill-rule:nonzero;stroke:none" transform="scale(1 -1)"/><path d="M426.72-708.75h213.36V-675H426.72v-33.75z" style="fill:#cacaca;fill-opacity:1;fill-rule:nonzero;stroke:none" transform="scale(1 -1)"/><path d="M640.08-742.5h213.36v67.5H640.08v-67.5z" style="fill:#c1c1c1;fill-opacity:1;fill-rule:nonzero;stroke:none" transform="scale(1 -1)"/><path d="M853.44-742.5h213.36v67.5H853.44v-67.5z" style="fill:#b4b4b4;fill-opacity:1;fill-rule:nonzero;stroke:none" transform="scale(1 -1)"/><path d="M1066.8-742.5h213.36v67.5H1066.8v-67.5z" style="fill:#a1a1a1;fill-opacity:1;fill-rule:nonzero;stroke:none" transform="scale(1 -1)"/><path d="M1280.16-742.5h213.36v33.75h-213.36v-33.75zM1280.16-708.75h213.36V-675h-213.36v-33.75z" style="fill:#8e8e8e;fill-opacity:1;fill-rule:nonzero;stroke:none" transform="scale(1 -1)"/><path d="M1493.52-742.5h106.68v33.75h-106.68v-33.75z" style="fill:#8a8a8a;fill-opacity:1;fill-rule:nonzero;stroke:none" transform="scale(1 -1)"/><path d="M1493.52-708.75h106.68V-675h-106.68v-33.75z" style="fill:#868686;fill-opacity:1;fill-rule:nonzero;stroke:none" transform="scale(1 -1)"/><path d="M1600.2-742.5v67.5h106.68v-67.5H1600.2z" style="fill:#7f7f7f;fill-opacity:1;fill-rule:nonzero;stroke:none" transform="scale(1 -1)"/><path d="M1706.88-742.5v67.5h106.68v-67.5h-106.68z" style="fill:#727272;fill-opacity:1;fill-rule:nonzero;stroke:none" transform="scale(1 -1)"/><path d="M1813.56-742.5h106.68v33.75h-106.68v-33.75z" style="fill:#6b6b6b;fill-opacity:1;fill-rule:nonzero;stroke:none" transform="scale(1 -1)"/><path d="M1813.56-708.75h106.68V-675h-106.68v-33.75z" style="fill:#686868;fill-opacity:1;fill-rule:nonzero;stroke:none" transform="scale(1 -1)"/><path d="M0-675h213.36v33.75H0V-675z" style="fill:#e1e1e1;fill-opacity:1;fill-rule:nonzero;stroke:none" transform="scale(1 -1)"/><path d="M0-641.25h213.36v33.75H0v-33.75z" style="fill:#ddd;fill-opacity:1;fill-rule:nonzero;stroke:none" transform="scale(1 -1)"/><path d="M213.36-675h213.36v33.75H213.36V-675z" style="fill:#d6d6d6;fill-opacity:1;fill-rule:nonzero;stroke:none" transform="scale(1 -1)"/><path d="M213.36-641.25h213.36v33.75H213.36v-33.75z" style="fill:#d2d2d2;fill-opacity:1;fill-rule:nonzero;stroke:none" transform="scale(1 -1)"/><path d="M426.72-675h213.36v67.5H426.72V-675z" style="fill:#c5c5c5;fill-opacity:1;fill-rule:nonzero;stroke:none" transform="scale(1 -1)"/><path d="M640.08-675h213.36v33.75H640.08V-675zM640.08-641.25h213.36v33.75H640.08v-33.75z" style="fill:#b9b9b9;fill-opacity:1;fill-rule:nonzero;stroke:none" transform="scale(1 -1)"/><path d="M853.44-675h213.36v33.75H853.44V-675z" style="fill:#b5b5b5;fill-opacity:1;fill-rule:nonzero;stroke:none" transform="scale(1 -1)"/><path d="M853.44-641.25h213.36v33.75H853.44v-33.75z" style="fill:#b2b2b2;fill-opacity:1;fill-rule:nonzero;stroke:none" transform="scale(1 -1)"/><path d="M1066.8-675h213.36v33.75H1066.8V-675z" style="fill:#a1a1a1;fill-opacity:1;fill-rule:nonzero;stroke:none" transform="scale(1 -1)"/><path d="M1066.8-641.25h213.36v33.75H1066.8v-33.75z" style="fill:#9c9c9c;fill-opacity:1;fill-rule:nonzero;stroke:none" transform="scale(1 -1)"/><path d="M1280.16-675h213.36v33.75h-213.36V-675z" style="fill:#8e8e8e;fill-opacity:1;fill-rule:nonzero;stroke:none" transform="scale(1 -1)"/><path d="M1280.16-641.25h213.36v33.75h-213.36v-33.75z" style="fill:#878787;fill-opacity:1;fill-rule:nonzero;stroke:none" transform="scale(1 -1)"/><path d="M1493.52-675h213.36v16.875h-213.36V-675z" style="fill:#7f7f7f;fill-opacity:1;fill-rule:nonzero;stroke:none" transform="scale(1 -1)"/><path d="M1493.52-658.125h213.36v16.875h-213.36v-16.875z" style="fill:#7d7d7d;fill-opacity:1;fill-rule:nonzero;stroke:none" transform="scale(1 -1)"/><path d="M1493.52-641.25h213.36v16.875h-213.36v-16.875z" style="fill:#7a7a7a;fill-opacity:1;fill-rule:nonzero;stroke:none" transform="scale(1 -1)"/><path d="M1493.52-624.375h213.36v16.875h-213.36v-16.875z" style="fill:#797979;fill-opacity:1;fill-rule:nonzero;stroke:none" transform="scale(1 -1)"/><path d="M1706.88-675h213.36v33.75h-213.36V-675z" style="fill:#727272;fill-opacity:1;fill-rule:nonzero;stroke:none" transform="scale(1 -1)"/><path d="M1706.88-641.25h213.36v33.75h-213.36v-33.75z" style="fill:#696969;fill-opacity:1;fill-rule:nonzero;stroke:none" transform="scale(1 -1)"/><path d="M0-607.5h213.36v33.75H0v-33.75z" style="fill:#d6d6d6;fill-opacity:1;fill-rule:nonzero;stroke:none" transform="scale(1 -1)"/><path d="M0-573.75h213.36V-540H0v-33.75z" style="fill:#cacaca;fill-opacity:1;fill-rule:nonzero;stroke:none" transform="scale(1 -1)"/><path d="M213.36-607.5v67.5h106.68v-67.5H213.36z" style="fill:#cbcbcb;fill-opacity:1;fill-rule:nonzero;stroke:none" transform="scale(1 -1)"/><path d="M320.04-607.5h106.68v33.75H320.04v-33.75z" style="fill:#c8c8c8;fill-opacity:1;fill-rule:nonzero;stroke:none" transform="scale(1 -1)"/><path d="M320.04-573.75h106.68V-540H320.04v-33.75z" style="fill:#c3c3c3;fill-opacity:1;fill-rule:nonzero;stroke:none" transform="scale(1 -1)"/><path d="M426.72-607.5H533.4v33.75H426.72v-33.75z" style="fill:#c5c5c5;fill-opacity:1;fill-rule:nonzero;stroke:none" transform="scale(1 -1)"/><path d="M426.72-573.75H533.4V-540H426.72v-33.75z" style="fill:#bdbdbd;fill-opacity:1;fill-rule:nonzero;stroke:none" transform="scale(1 -1)"/><path d="M533.4-607.5h106.68v33.75H533.4v-33.75z" style="fill:#bfbfbf;fill-opacity:1;fill-rule:nonzero;stroke:none" transform="scale(1 -1)"/><path d="M533.4-573.75h106.68V-540H533.4v-33.75zM640.08-607.5v67.5h106.68v-67.5H640.08z" style="fill:#b9b9b9;fill-opacity:1;fill-rule:nonzero;stroke:none" transform="scale(1 -1)"/><path d="M746.76-607.5h106.68v33.75H746.76v-33.75z" style="fill:#b3b3b3;fill-opacity:1;fill-rule:nonzero;stroke:none" transform="scale(1 -1)"/><path d="M746.76-573.75h106.68V-540H746.76v-33.75z" style="fill:#acacac;fill-opacity:1;fill-rule:nonzero;stroke:none" transform="scale(1 -1)"/><path d="M853.44-607.5h213.36v33.75H853.44v-33.75z" style="fill:#ababab;fill-opacity:1;fill-rule:nonzero;stroke:none" transform="scale(1 -1)"/><path d="M853.44-573.75h213.36V-540H853.44v-33.75z" style="fill:#a1a1a1;fill-opacity:1;fill-rule:nonzero;stroke:none" transform="scale(1 -1)"/><path d="M1066.8-607.5h213.36v67.5H1066.8v-67.5z" style="fill:#949494;fill-opacity:1;fill-rule:nonzero;stroke:none" transform="scale(1 -1)"/><path d="M1280.16-607.5h213.36v67.5h-213.36v-67.5z" style="fill:#818181;fill-opacity:1;fill-rule:nonzero;stroke:none" transform="scale(1 -1)"/><path d="M1493.52-607.5h213.36v67.5h-213.36v-67.5z" style="fill:#787878;fill-opacity:1;fill-rule:nonzero;stroke:none" transform="scale(1 -1)"/><path d="M1706.88-607.5h213.36v67.5h-213.36v-67.5z" style="fill:#606060;fill-opacity:1;fill-rule:nonzero;stroke:none" transform="scale(1 -1)"/><path d="M0-540h213.36v67.5H0V-540z" style="fill:#c2c2c2;fill-opacity:1;fill-rule:nonzero;stroke:none" transform="scale(1 -1)"/><path d="M213.36-540v67.5h106.68V-540H213.36z" style="fill:#c4c4c4;fill-opacity:1;fill-rule:nonzero;stroke:none" transform="scale(1 -1)"/><path d="M320.04-540v67.5h106.68V-540H320.04z" style="fill:#bdbdbd;fill-opacity:1;fill-rule:nonzero;stroke:none" transform="scale(1 -1)"/><path d="M426.72-540h213.36v67.5H426.72V-540z" style="fill:#b4b4b4;fill-opacity:1;fill-rule:nonzero;stroke:none" transform="scale(1 -1)"/><path d="M640.08-540v67.5h106.68V-540H640.08z" style="fill:#b0b0b0;fill-opacity:1;fill-rule:nonzero;stroke:none" transform="scale(1 -1)"/><path d="M746.76-540v67.5h106.68V-540H746.76z" style="fill:#a6a6a6;fill-opacity:1;fill-rule:nonzero;stroke:none" transform="scale(1 -1)"/><path d="M853.44-540h213.36v67.5H853.44V-540z" style="fill:#9a9a9a;fill-opacity:1;fill-rule:nonzero;stroke:none" transform="scale(1 -1)"/><path d="M1066.8-540h213.36v33.75H1066.8V-540z" style="fill:#8e8e8e;fill-opacity:1;fill-rule:nonzero;stroke:none" transform="scale(1 -1)"/><path d="M1066.8-506.25h213.36v33.75H1066.8v-33.75z" style="fill:#8a8a8a;fill-opacity:1;fill-rule:nonzero;stroke:none" transform="scale(1 -1)"/><path d="M1280.16-540h213.36v33.75h-213.36V-540z" style="fill:#878787;fill-opacity:1;fill-rule:nonzero;stroke:none" transform="scale(1 -1)"/><path d="M1280.16-506.25h213.36v33.75h-213.36v-33.75z" style="fill:gray;fill-opacity:1;fill-rule:nonzero;stroke:none" transform="scale(1 -1)"/><path d="M1493.52-540h213.36v33.75h-213.36V-540z" style="fill:#787878;fill-opacity:1;fill-rule:nonzero;stroke:none" transform="scale(1 -1)"/><path d="M1493.52-506.25h213.36v33.75h-213.36v-33.75z" style="fill:#727272;fill-opacity:1;fill-rule:nonzero;stroke:none" transform="scale(1 -1)"/><path d="M1706.88-540h213.36v33.75h-213.36V-540z" style="fill:#606060;fill-opacity:1;fill-rule:nonzero;stroke:none" transform="scale(1 -1)"/><path d="M1706.88-506.25h213.36v33.75h-213.36v-33.75z" style="fill:#5b5b5b;fill-opacity:1;fill-rule:nonzero;stroke:none" transform="scale(1 -1)"/><path d="M0-472.5h213.36v33.75H0v-33.75z" style="fill:#c2c2c2;fill-opacity:1;fill-rule:nonzero;stroke:none" transform="scale(1 -1)"/><path d="M0-438.75h213.36V-405H0v-33.75zM213.36-472.5h213.36v33.75H213.36v-33.75z" style="fill:#bdbdbd;fill-opacity:1;fill-rule:nonzero;stroke:none" transform="scale(1 -1)"/><path d="M213.36-438.75h213.36V-405H213.36v-33.75zM426.72-472.5h213.36v33.75H426.72v-33.75z" style="fill:#b4b4b4;fill-opacity:1;fill-rule:nonzero;stroke:none" transform="scale(1 -1)"/><path d="M426.72-438.75h213.36V-405H426.72v-33.75z" style="fill:#afafaf;fill-opacity:1;fill-rule:nonzero;stroke:none" transform="scale(1 -1)"/><path d="M640.08-472.5v67.5h53.34v-67.5h-53.34z" style="fill:#a8a8a8;fill-opacity:1;fill-rule:nonzero;stroke:none" transform="scale(1 -1)"/><path d="M693.42-472.5v67.5h53.34v-67.5h-53.34z" style="fill:#a5a5a5;fill-opacity:1;fill-rule:nonzero;stroke:none" transform="scale(1 -1)"/><path d="M746.76-472.5h106.68v33.75H746.76v-33.75z" style="fill:#a2a2a2;fill-opacity:1;fill-rule:nonzero;stroke:none" transform="scale(1 -1)"/><path d="M746.76-438.75h106.68V-405H746.76v-33.75z" style="fill:#a0a0a0;fill-opacity:1;fill-rule:nonzero;stroke:none" transform="scale(1 -1)"/><path d="M853.44-472.5h213.36v33.75H853.44v-33.75z" style="fill:#9a9a9a;fill-opacity:1;fill-rule:nonzero;stroke:none" transform="scale(1 -1)"/><path d="M853.44-438.75h213.36V-405H853.44v-33.75z" style="fill:#959595;fill-opacity:1;fill-rule:nonzero;stroke:none" transform="scale(1 -1)"/><path d="M1066.8-472.5h213.36v67.5H1066.8v-67.5z" style="fill:#858585;fill-opacity:1;fill-rule:nonzero;stroke:none" transform="scale(1 -1)"/><path d="M1280.16-472.5h213.36v67.5h-213.36v-67.5z" style="fill:#797979;fill-opacity:1;fill-rule:nonzero;stroke:none" transform="scale(1 -1)"/><path d="M1493.52-472.5h213.36v67.5h-213.36v-67.5z" style="fill:#6a6a6a;fill-opacity:1;fill-rule:nonzero;stroke:none" transform="scale(1 -1)"/><path d="M1706.88-472.5h213.36v67.5h-213.36v-67.5z" style="fill:#555;fill-opacity:1;fill-rule:nonzero;stroke:none" transform="scale(1 -1)"/><path d="M0-405h213.36v33.75H0V-405z" style="fill:#b5b5b5;fill-opacity:1;fill-rule:nonzero;stroke:none" transform="scale(1 -1)"/><path d="M0-371.25h213.36v33.75H0v-33.75z" style="fill:#afafaf;fill-opacity:1;fill-rule:nonzero;stroke:none" transform="scale(1 -1)"/><path d="M213.36-405v67.5h106.68V-405H213.36z" style="fill:#adadad;fill-opacity:1;fill-rule:nonzero;stroke:none" transform="scale(1 -1)"/><path d="M320.04-405v67.5h106.68V-405H320.04z" style="fill:#aaa;fill-opacity:1;fill-rule:nonzero;stroke:none" transform="scale(1 -1)"/><path d="M426.72-405h213.36v16.875H426.72V-405z" style="fill:#a8a8a8;fill-opacity:1;fill-rule:nonzero;stroke:none" transform="scale(1 -1)"/><path d="M426.72-388.125h213.36v16.875H426.72v-16.875z" style="fill:#a6a6a6;fill-opacity:1;fill-rule:nonzero;stroke:none" transform="scale(1 -1)"/><path d="M426.72-371.25h213.36v16.875H426.72v-16.875z" style="fill:#a4a4a4;fill-opacity:1;fill-rule:nonzero;stroke:none" transform="scale(1 -1)"/><path d="M426.72-354.375h213.36v16.875H426.72v-16.875z" style="fill:#a3a3a3;fill-opacity:1;fill-rule:nonzero;stroke:none" transform="scale(1 -1)"/><path d="M640.08-405h53.34v16.875h-53.34V-405z" style="fill:#a8a8a8;fill-opacity:1;fill-rule:nonzero;stroke:none" transform="scale(1 -1)"/><path d="M640.08-388.125h53.34v16.875h-53.34v-16.875zM693.42-405h53.34v16.875h-53.34V-405z" style="fill:#a5a5a5;fill-opacity:1;fill-rule:nonzero;stroke:none" transform="scale(1 -1)"/><path d="M693.42-388.125h53.34v16.875h-53.34v-16.875z" style="fill:#a2a2a2;fill-opacity:1;fill-rule:nonzero;stroke:none" transform="scale(1 -1)"/><path d="M640.08-371.25h106.68v16.875H640.08v-16.875z" style="fill:#9d9d9d;fill-opacity:1;fill-rule:nonzero;stroke:none" transform="scale(1 -1)"/><path d="M640.08-354.375h106.68v16.875H640.08v-16.875z" style="fill:#969696;fill-opacity:1;fill-rule:nonzero;stroke:none" transform="scale(1 -1)"/><path d="M746.76-405h106.68v33.75H746.76V-405z" style="fill:#9e9e9e;fill-opacity:1;fill-rule:nonzero;stroke:none" transform="scale(1 -1)"/><path d="M746.76-371.25h106.68v33.75H746.76v-33.75z" style="fill:#989898;fill-opacity:1;fill-rule:nonzero;stroke:none" transform="scale(1 -1)"/><path d="M853.44-405h213.36v67.5H853.44V-405z" style="fill:#8f8f8f;fill-opacity:1;fill-rule:nonzero;stroke:none" transform="scale(1 -1)"/><path d="M1066.8-405h213.36v67.5H1066.8V-405z" style="fill:#7f7f7f;fill-opacity:1;fill-rule:nonzero;stroke:none" transform="scale(1 -1)"/><path d="M1280.16-405v67.5h106.68V-405h-106.68z" style="fill:#797979;fill-opacity:1;fill-rule:nonzero;stroke:none" transform="scale(1 -1)"/><path d="M1386.84-405v67.5h106.68V-405h-106.68z" style="fill:#6d6d6d;fill-opacity:1;fill-rule:nonzero;stroke:none" transform="scale(1 -1)"/><path d="M1493.52-405h213.36v33.75h-213.36V-405zM1493.52-371.25h213.36v33.75h-213.36v-33.75z" style="fill:#616161;fill-opacity:1;fill-rule:nonzero;stroke:none" transform="scale(1 -1)"/><path d="M1706.88-405h106.68v33.75h-106.68V-405z" style="fill:#555;fill-opacity:1;fill-rule:nonzero;stroke:none" transform="scale(1 -1)"/><path d="M1706.88-371.25h106.68v33.75h-106.68v-33.75z" style="fill:#4f4f4f;fill-opacity:1;fill-rule:nonzero;stroke:none" transform="scale(1 -1)"/><path d="M1813.56-405h106.68v33.75h-106.68V-405z" style="fill:#4e4e4e;fill-opacity:1;fill-rule:nonzero;stroke:none" transform="scale(1 -1)"/><path d="M1813.56-371.25h106.68v33.75h-106.68v-33.75z" style="fill:#494949;fill-opacity:1;fill-rule:nonzero;stroke:none" transform="scale(1 -1)"/><path d="M0-337.5h213.36v67.5H0v-67.5z" style="fill:#ababab;fill-opacity:1;fill-rule:nonzero;stroke:none" transform="scale(1 -1)"/><path d="M213.36-337.5v67.5h106.68v-67.5H213.36z" style="fill:#adadad;fill-opacity:1;fill-rule:nonzero;stroke:none" transform="scale(1 -1)"/><path d="M320.04-337.5v67.5h106.68v-67.5H320.04z" style="fill:#a9a9a9;fill-opacity:1;fill-rule:nonzero;stroke:none" transform="scale(1 -1)"/><path d="M426.72-337.5h213.36v67.5H426.72v-67.5z" style="fill:#a2a2a2;fill-opacity:1;fill-rule:nonzero;stroke:none" transform="scale(1 -1)"/><path d="M640.08-337.5v67.5h106.68v-67.5H640.08z" style="fill:#939393;fill-opacity:1;fill-rule:nonzero;stroke:none" transform="scale(1 -1)"/><path d="M746.76-337.5v67.5h106.68v-67.5H746.76z" style="fill:#919191;fill-opacity:1;fill-rule:nonzero;stroke:none" transform="scale(1 -1)"/><path d="M853.44-337.5h213.36v33.75H853.44v-33.75z" style="fill:#8f8f8f;fill-opacity:1;fill-rule:nonzero;stroke:none" transform="scale(1 -1)"/><path d="M853.44-303.75h213.36V-270H853.44v-33.75z" style="fill:#8e8e8e;fill-opacity:1;fill-rule:nonzero;stroke:none" transform="scale(1 -1)"/><path d="M1066.8-337.5h213.36v33.75H1066.8v-33.75z" style="fill:#7f7f7f;fill-opacity:1;fill-rule:nonzero;stroke:none" transform="scale(1 -1)"/><path d="M1066.8-303.75h213.36V-270H1066.8v-33.75z" style="fill:#7b7b7b;fill-opacity:1;fill-rule:nonzero;stroke:none" transform="scale(1 -1)"/><path d="M1280.16-337.5h213.36v33.75h-213.36v-33.75z" style="fill:#707070;fill-opacity:1;fill-rule:nonzero;stroke:none" transform="scale(1 -1)"/><path d="M1280.16-303.75h213.36V-270h-213.36v-33.75z" style="fill:#6a6a6a;fill-opacity:1;fill-rule:nonzero;stroke:none" transform="scale(1 -1)"/><path d="M1493.52-337.5h213.36v33.75h-213.36v-33.75z" style="fill:#606060;fill-opacity:1;fill-rule:nonzero;stroke:none" transform="scale(1 -1)"/><path d="M1493.52-303.75h213.36V-270h-213.36v-33.75z" style="fill:#5a5a5a;fill-opacity:1;fill-rule:nonzero;stroke:none" transform="scale(1 -1)"/><path d="M1706.88-337.5h213.36v67.5h-213.36v-67.5z" style="fill:#494949;fill-opacity:1;fill-rule:nonzero;stroke:none" transform="scale(1 -1)"/><path d="M0-270h213.36v33.75H0V-270zM0-236.25h213.36v33.75H0v-33.75z" style="fill:#ababab;fill-opacity:1;fill-rule:nonzero;stroke:none" transform="scale(1 -1)"/><path d="M213.36-270h106.68v33.75H213.36V-270z" style="fill:#aaa;fill-opacity:1;fill-rule:nonzero;stroke:none" transform="scale(1 -1)"/><path d="M213.36-236.25h106.68v33.75H213.36v-33.75zM320.04-270h106.68v33.75H320.04V-270z" style="fill:#a7a7a7;fill-opacity:1;fill-rule:nonzero;stroke:none" transform="scale(1 -1)"/><path d="M320.04-236.25h106.68v33.75H320.04v-33.75z" style="fill:#a1a1a1;fill-opacity:1;fill-rule:nonzero;stroke:none" transform="scale(1 -1)"/><path d="M426.72-270h213.36v33.75H426.72V-270z" style="fill:#a2a2a2;fill-opacity:1;fill-rule:nonzero;stroke:none" transform="scale(1 -1)"/><path d="M426.72-236.25h213.36v33.75H426.72v-33.75z" style="fill:#999;fill-opacity:1;fill-rule:nonzero;stroke:none" transform="scale(1 -1)"/><path d="M640.08-270h213.36v67.5H640.08V-270z" style="fill:#939393;fill-opacity:1;fill-rule:nonzero;stroke:none" transform="scale(1 -1)"/><path d="M853.44-270h213.36v67.5H853.44V-270z" style="fill:#8c8c8c;fill-opacity:1;fill-rule:nonzero;stroke:none" transform="scale(1 -1)"/><path d="M1066.8-270h213.36v67.5H1066.8V-270z" style="fill:#757575;fill-opacity:1;fill-rule:nonzero;stroke:none" transform="scale(1 -1)"/><path d="M1280.16-270h213.36v67.5h-213.36V-270z" style="fill:#676767;fill-opacity:1;fill-rule:nonzero;stroke:none" transform="scale(1 -1)"/><path d="M1493.52-270h213.36v67.5h-213.36V-270z" style="fill:#545454;fill-opacity:1;fill-rule:nonzero;stroke:none" transform="scale(1 -1)"/><path d="M1706.88-270h213.36v67.5h-213.36V-270z" style="fill:#494949;fill-opacity:1;fill-rule:nonzero;stroke:none" transform="scale(1 -1)"/><path d="M0-202.5h106.68v33.75H0v-33.75z" style="fill:#ababab;fill-opacity:1;fill-rule:nonzero;stroke:none" transform="scale(1 -1)"/><path d="M0-168.75h106.68V-135H0v-33.75z" style="fill:#aaa;fill-opacity:1;fill-rule:nonzero;stroke:none" transform="scale(1 -1)"/><path d="M106.68-202.5h106.68v33.75H106.68v-33.75z" style="fill:#a8a8a8;fill-opacity:1;fill-rule:nonzero;stroke:none" transform="scale(1 -1)"/><path d="M106.68-168.75h106.68v16.875H106.68v-16.875z" style="fill:#9d9d9d;fill-opacity:1;fill-rule:nonzero;stroke:none" transform="scale(1 -1)"/><path d="M106.68-151.875h106.68V-135H106.68v-16.875z" style="fill:#979797;fill-opacity:1;fill-rule:nonzero;stroke:none" transform="scale(1 -1)"/><path d="M213.36-202.5h213.36v33.75H213.36v-33.75z" style="fill:#a2a2a2;fill-opacity:1;fill-rule:nonzero;stroke:none" transform="scale(1 -1)"/><path d="M213.36-168.75h213.36V-135H213.36v-33.75z" style="fill:#969696;fill-opacity:1;fill-rule:nonzero;stroke:none" transform="scale(1 -1)"/><path d="M426.72-202.5v67.5H533.4v-67.5H426.72z" style="fill:#919191;fill-opacity:1;fill-rule:nonzero;stroke:none" transform="scale(1 -1)"/><path d="M533.4-202.5v67.5h106.68v-67.5H533.4z" style="fill:#8e8e8e;fill-opacity:1;fill-rule:nonzero;stroke:none" transform="scale(1 -1)"/><path d="M640.08-202.5h213.36v67.5H640.08v-67.5z" style="fill:#8c8c8c;fill-opacity:1;fill-rule:nonzero;stroke:none" transform="scale(1 -1)"/><path d="M853.44-202.5h213.36v67.5H853.44v-67.5z" style="fill:#818181;fill-opacity:1;fill-rule:nonzero;stroke:none" transform="scale(1 -1)"/><path d="M1066.8-202.5h213.36v67.5H1066.8v-67.5z" style="fill:#6e6e6e;fill-opacity:1;fill-rule:nonzero;stroke:none" transform="scale(1 -1)"/><path d="M1280.16-202.5h106.68v33.75h-106.68v-33.75z" style="fill:#676767;fill-opacity:1;fill-rule:nonzero;stroke:none" transform="scale(1 -1)"/><path d="M1280.16-168.75h106.68V-135h-106.68v-33.75z" style="fill:#646464;fill-opacity:1;fill-rule:nonzero;stroke:none" transform="scale(1 -1)"/><path d="M1386.84-202.5h106.68v33.75h-106.68v-33.75z" style="fill:#5e5e5e;fill-opacity:1;fill-rule:nonzero;stroke:none" transform="scale(1 -1)"/><path d="M1386.84-168.75h106.68V-135h-106.68v-33.75z" style="fill:#5a5a5a;fill-opacity:1;fill-rule:nonzero;stroke:none" transform="scale(1 -1)"/><path d="M1493.52-202.5h213.36v33.75h-213.36v-33.75z" style="fill:#545454;fill-opacity:1;fill-rule:nonzero;stroke:none" transform="scale(1 -1)"/><path d="M1493.52-168.75h213.36V-135h-213.36v-33.75z" style="fill:#4f4f4f;fill-opacity:1;fill-rule:nonzero;stroke:none" transform="scale(1 -1)"/><path d="M1706.88-202.5h213.36v33.75h-213.36v-33.75z" style="fill:#434343;fill-opacity:1;fill-rule:nonzero;stroke:none" transform="scale(1 -1)"/><path d="M1706.88-168.75h213.36V-135h-213.36v-33.75z" style="fill:#3b3b3b;fill-opacity:1;fill-rule:nonzero;stroke:none" transform="scale(1 -1)"/><path d="M0-135h106.68v33.75H0V-135z" style="fill:#a4a4a4;fill-opacity:1;fill-rule:nonzero;stroke:none" transform="scale(1 -1)"/><path d="M0-101.25h106.68v16.875H0v-16.875z" style="fill:#949494;fill-opacity:1;fill-rule:nonzero;stroke:none" transform="scale(1 -1)"/><path d="M0-84.375h106.68V-67.5H0v-16.875z" style="fill:#8c8c8c;fill-opacity:1;fill-rule:nonzero;stroke:none" transform="scale(1 -1)"/><path d="M106.68-135v67.5h106.68V-135H106.68z" style="fill:#939393;fill-opacity:1;fill-rule:nonzero;stroke:none" transform="scale(1 -1)"/><path d="M213.36-135v67.5h106.68V-135H213.36z" style="fill:#8d8d8d;fill-opacity:1;fill-rule:nonzero;stroke:none" transform="scale(1 -1)"/><path d="M320.04-135h106.68v33.75H320.04V-135z" style="fill:#8f8f8f;fill-opacity:1;fill-rule:nonzero;stroke:none" transform="scale(1 -1)"/><path d="M320.04-101.25h106.68v33.75H320.04v-33.75z" style="fill:#8b8b8b;fill-opacity:1;fill-rule:nonzero;stroke:none" transform="scale(1 -1)"/><path d="M426.72-135H533.4v33.75H426.72V-135z" style="fill:#919191;fill-opacity:1;fill-rule:nonzero;stroke:none" transform="scale(1 -1)"/><path d="M426.72-101.25H533.4v33.75H426.72v-33.75z" style="fill:#898989;fill-opacity:1;fill-rule:nonzero;stroke:none" transform="scale(1 -1)"/><path d="M533.4-135h106.68v33.75H533.4V-135z" style="fill:#8c8c8c;fill-opacity:1;fill-rule:nonzero;stroke:none" transform="scale(1 -1)"/><path d="M533.4-101.25h106.68v33.75H533.4v-33.75z" style="fill:#868686;fill-opacity:1;fill-rule:nonzero;stroke:none" transform="scale(1 -1)"/><path d="M640.08-135h213.36v67.5H640.08V-135z" style="fill:#858585;fill-opacity:1;fill-rule:nonzero;stroke:none" transform="scale(1 -1)"/><path d="M853.44-135h213.36v67.5H853.44V-135z" style="fill:#7a7a7a;fill-opacity:1;fill-rule:nonzero;stroke:none" transform="scale(1 -1)"/><path d="M1066.8-135h213.36v67.5H1066.8V-135z" style="fill:#666;fill-opacity:1;fill-rule:nonzero;stroke:none" transform="scale(1 -1)"/><path d="M1280.16-135h213.36v67.5h-213.36V-135z" style="fill:#5e5e5e;fill-opacity:1;fill-rule:nonzero;stroke:none" transform="scale(1 -1)"/><path d="M1493.52-135h213.36v67.5h-213.36V-135z" style="fill:#4a4a4a;fill-opacity:1;fill-rule:nonzero;stroke:none" transform="scale(1 -1)"/><path d="M1706.88-135h213.36v67.5h-213.36V-135z" style="fill:#363636;fill-opacity:1;fill-rule:nonzero;stroke:none" transform="scale(1 -1)"/><path d="M0-67.5h106.68v33.75H0V-67.5zM0-33.75h106.68V0H0v-33.75Z" style="fill:#898989;fill-opacity:1;fill-rule:nonzero;stroke:none" transform="scale(1 -1)"/><path d="M106.68-67.5h106.68v33.75H106.68V-67.5z" style="fill:#8c8c8c;fill-opacity:1;fill-rule:nonzero;stroke:none" transform="scale(1 -1)"/><path d="M106.68-33.75h106.68V0H106.68v-33.75z" style="fill:#888;fill-opacity:1;fill-rule:nonzero;stroke:none" transform="scale(1 -1)"/><path d="M213.36-67.5h106.68v33.75H213.36V-67.5z" style="fill:#8d8d8d;fill-opacity:1;fill-rule:nonzero;stroke:none" transform="scale(1 -1)"/><path d="M213.36-33.75h106.68V0H213.36v-33.75z" style="fill:#898989;fill-opacity:1;fill-rule:nonzero;stroke:none" transform="scale(1 -1)"/><path d="M320.04-67.5V0h106.68v-67.5H320.04z" style="fill:#888;fill-opacity:1;fill-rule:nonzero;stroke:none" transform="scale(1 -1)"/><path d="M426.72-67.5V0H533.4v-67.5H426.72z" style="fill:gray;fill-opacity:1;fill-rule:nonzero;stroke:none" transform="scale(1 -1)"/><path d="M533.4-67.5V0h106.68v-67.5H533.4z" style="fill:#7e7e7e;fill-opacity:1;fill-rule:nonzero;stroke:none" transform="scale(1 -1)"/><path d="M640.08-67.5h213.36V0H640.08v-67.5z" style="fill:#7d7d7d;fill-opacity:1;fill-rule:nonzero;stroke:none" transform="scale(1 -1)"/><path d="M853.44-67.5h213.36V0H853.44v-67.5z" style="fill:#717171;fill-opacity:1;fill-rule:nonzero;stroke:none" transform="scale(1 -1)"/><path d="M1066.8-67.5h213.36V0H1066.8v-67.5z" style="fill:#5c5c5c;fill-opacity:1;fill-rule:nonzero;stroke:none" transform="scale(1 -1)"/><path d="M1280.16-67.5V0h106.68v-67.5h-106.68z" style="fill:#515151;fill-opacity:1;fill-rule:nonzero;stroke:none" transform="scale(1 -1)"/><path d="M1386.84-67.5h106.68v33.75h-106.68V-67.5z" style="fill:#4e4e4e;fill-opacity:1;fill-rule:nonzero;stroke:none" transform="scale(1 -1)"/><path d="M1386.84-33.75h106.68V0h-106.68v-33.75z" style="fill:#494949;fill-opacity:1;fill-rule:nonzero;stroke:none" transform="scale(1 -1)"/><path d="M1493.52-67.5h213.36v33.75h-213.36V-67.5z" style="fill:#4a4a4a;fill-opacity:1;fill-rule:nonzero;stroke:none" transform="scale(1 -1)"/><path d="M1493.52-33.75h213.36V0h-213.36v-33.75z" style="fill:#464646;fill-opacity:1;fill-rule:nonzero;stroke:none" transform="scale(1 -1)"/><path d="M1706.88-67.5h106.68v33.75h-106.68V-67.5z" style="fill:#3d3d3d;fill-opacity:1;fill-rule:nonzero;stroke:none" transform="scale(1 -1)"/><path d="M1706.88-33.75h106.68V0h-106.68v-33.75z" style="fill:#383838;fill-opacity:1;fill-rule:nonzero;stroke:none" transform="scale(1 -1)"/><path d="M1813.56-67.5h106.68v33.75h-106.68V-67.5z" style="fill:#323232;fill-opacity:1;fill-rule:nonzero;stroke:none" transform="scale(1 -1)"/><path d="M1813.56-33.75h106.68V0h-106.68v-33.75z" style="fill:#2c2c2c;fill-opacity:1;fill-rule:nonzero;stroke:none" transform="scale(1 -1)"/></g><path d="m0 0 48.071-147.542V38.957L0 0Z" style="fill:#595959;fill-opacity:1;fill-rule:nonzero;stroke:none" transform="matrix(1.25 0 0 -1.25 2339.911 528.572)"/><path d="m0 0 70.801-29.909v141.351L0 0Z" style="fill:#333;fill-opacity:1;fill-rule:nonzero;stroke:none" transform="matrix(1.25 0 0 -1.25 2311.498 1150.352)"/><path d="m0 0-35.259-7.601L40.79-72.85V0H0Z" style="fill:#757575;fill-opacity:1;fill-rule:nonzero;stroke:none" transform="matrix(1.25 0 0 -1.25 2349.012 0)"/><path d="m0 0 110.141-71.589v162.09L0 0Z" style="fill:#474747;fill-opacity:1;fill-rule:nonzero;stroke:none" transform="matrix(1.25 0 0 -1.25 2262.323 838.914)"/><path d="m0 0 20.982-109.274L91.783 2.168v34.81L0 0Z" style="fill:#3a3a3a;fill-opacity:1;fill-rule:nonzero;stroke:none" transform="matrix(1.25 0 0 -1.25 2285.271 1013.76)"/><path d="m0 0-10.94-7.601L24.32 0H0Z" style="fill:#787878;fill-opacity:1;fill-rule:nonzero;stroke:none" transform="matrix(1.25 0 0 -1.25 2318.613 0)"/><path d="m0 0 97.029-66.463v97.64L0 0Z" style="fill:#6d6d6d;fill-opacity:1;fill-rule:nonzero;stroke:none" transform="matrix(1.25 0 0 -1.25 2278.713 235.709)"/><path d="m0 0 97.029 31.177v84.541L20.98 180.967 0 0Z" style="fill:#757575;fill-opacity:1;fill-rule:nonzero;stroke:none" transform="matrix(1.25 0 0 -1.25 2278.713 235.709)"/><path d="m0 0 2.241-7.601L13.181 0H0Z" style="fill:#7e7e7e;fill-opacity:1;fill-rule:nonzero;stroke:none" transform="matrix(1.25 0 0 -1.25 2302.137 0)"/><path d="m0 0 91.782-34.002v7.1L43.711 120.641 0 0Z" style="fill:#565656;fill-opacity:1;fill-rule:nonzero;stroke:none" transform="matrix(1.25 0 0 -1.25 2285.272 679.373)"/><path d="M0 0h30.919v48.16l-52.44 15.391L0 0Z" style="fill:#1d1d1d;fill-opacity:1;fill-rule:nonzero;stroke:none" transform="matrix(1.25 0 0 -1.25 2361.35 1350)"/><path d="m0 0 91.783 36.978v31.31l-110.141 71.589L0 0Z" style="fill:#424242;fill-opacity:1;fill-rule:nonzero;stroke:none" transform="matrix(1.25 0 0 -1.25 2285.271 1013.76)"/><path d="m0 0 52.44-15.391v49.06L0 0Z" style="fill:#252525;fill-opacity:1;fill-rule:nonzero;stroke:none" transform="matrix(1.25 0 0 -1.25 2334.45 1270.562)"/><path d="m0 0 52.44 33.669v32.59l-70.801 29.909L0 0Z" style="fill:#2c2c2c;fill-opacity:1;fill-rule:nonzero;stroke:none" transform="matrix(1.25 0 0 -1.25 2334.45 1270.562)"/><path d="m0 0 90.91-89.218v99.68L0 0Z" style="fill:#666;fill-opacity:1;fill-rule:nonzero;stroke:none" transform="matrix(1.25 0 0 -1.25 2286.362 362.465)"/><path d="m0 0 90.91 10.462v24.48l-97.029 66.463L0 0Z" style="fill:#6d6d6d;fill-opacity:1;fill-rule:nonzero;stroke:none" transform="matrix(1.25 0 0 -1.25 2286.362 362.465)"/><path d="m0 0 18.102-38.201h114.29l14.479 63.551L0 0Z" style="fill:#212121;fill-opacity:1;fill-rule:nonzero;stroke:none" transform="matrix(1.25 0 0 -1.25 2150.86 1302.25)"/><path d="m0 0 48.071 38.957v4.711l-90.91 89.218L0 0Z" style="fill:#646464;fill-opacity:1;fill-rule:nonzero;stroke:none" transform="matrix(1.25 0 0 -1.25 2339.911 528.572)"/><path d="m0 0 110.141 90.501v3.13l-91.782 34.002L0 0Z" style="fill:#505050;fill-opacity:1;fill-rule:nonzero;stroke:none" transform="matrix(1.25 0 0 -1.25 2262.323 838.914)"/><path d="M0 0h36L14.479 63.551 0 0Z" style="fill:#1a1a1a;fill-opacity:1;fill-rule:nonzero;stroke:none" transform="matrix(1.25 0 0 -1.25 2316.35 1350)"/><path d="M0 0h16.75L-1.352 38.201 0 0Z" style="fill:#1f1f1f;fill-opacity:1;fill-rule:nonzero;stroke:none" transform="matrix(1.25 0 0 -1.25 2152.55 1350)"/><path d="m0 0 104.909-132.008 20.979 180.967L0 0Z" style="fill:#7c7c7c;fill-opacity:1;fill-rule:nonzero;stroke:none" transform="matrix(1.25 0 0 -1.25 2147.577 70.7)"/><path d="m0 0-128.51-121.518 146.871 25.35L0 0Z" style="fill:#2d2d2d;fill-opacity:1;fill-rule:nonzero;stroke:none" transform="matrix(1.25 0 0 -1.25 2311.498 1150.352)"/><path d="m0 0-159.981-158.235 202.82 25.349L0 0Z" style="fill:#686868;fill-opacity:1;fill-rule:nonzero;stroke:none" transform="matrix(1.25 0 0 -1.25 2286.363 362.465)"/><path d="m0 0 159.109-95.291 43.711 120.64L0 0Z" style="fill:#606060;fill-opacity:1;fill-rule:nonzero;stroke:none" transform="matrix(1.25 0 0 -1.25 2086.386 560.26)"/><path d="m0 0-19.23-83.05 124.139-48.958L0 0Z" style="fill:#7e7e7e;fill-opacity:1;fill-rule:nonzero;stroke:none" transform="matrix(1.25 0 0 -1.25 2147.577 70.7)"/><path d="m0 0-139.001-25.353 157.36-114.524L0 0Z" style="fill:#4a4a4a;fill-opacity:1;fill-rule:nonzero;stroke:none" transform="matrix(1.25 0 0 -1.25 2262.323 838.914)"/><path d="m0 0 125.014-82.175 18.359 127.633L0 0Z" style="fill:#555;fill-opacity:1;fill-rule:nonzero;stroke:none" transform="matrix(1.25 0 0 -1.25 2106.056 736.195)"/><path d="m0 0 5.245-145.994L165.227 12.241 0 0Z" style="fill:#727272;fill-opacity:1;fill-rule:nonzero;stroke:none" transform="matrix(1.25 0 0 -1.25 2079.83 377.767)"/><path d="m0 0-26.788-56.56L99.101-7.601 96.86 0H0Z" style="fill:#838383;fill-opacity:1;fill-rule:nonzero;stroke:none" transform="matrix(1.25 0 0 -1.25 2181.062 0)"/><path d="m0 0-144.247-82.175 165.228-27.099L0 0Z" style="fill:#3c3c3c;fill-opacity:1;fill-rule:nonzero;stroke:none" transform="matrix(1.25 0 0 -1.25 2285.271 1013.76)"/><path d="m0 0 36.718-148.617 128.51 121.518L0 0Z" style="fill:#363636;fill-opacity:1;fill-rule:nonzero;stroke:none" transform="matrix(1.25 0 0 -1.25 2104.963 1116.478)"/><path d="m0 0-5.139-56.56L21.649 0H0Z" style="fill:#878787;fill-opacity:1;fill-rule:nonzero;stroke:none" transform="matrix(1.25 0 0 -1.25 2154 0)"/><path d="m0 0-34.969-162.604L124.138-48.958 0 0Z" style="fill:#7b7b7b;fill-opacity:1;fill-rule:nonzero;stroke:none" transform="matrix(1.25 0 0 -1.25 2123.54 174.512)"/><path d="m0 0 20.107-43.711 144.247 82.175L0 0Z" style="fill:#434343;fill-opacity:1;fill-rule:nonzero;stroke:none" transform="matrix(1.25 0 0 -1.25 2079.83 1061.84)"/><path d="m0 0-6.994-152.988 164.354 38.465L0 0Z" style="fill:#494949;fill-opacity:1;fill-rule:nonzero;stroke:none" transform="matrix(1.25 0 0 -1.25 2088.572 870.606)"/><path d="m0 0 15.736-140.749 143.373 45.458L0 0Z" style="fill:#606060;fill-opacity:1;fill-rule:nonzero;stroke:none" transform="matrix(1.25 0 0 -1.25 2086.386 560.26)"/><path d="m0 0-159.107-113.646L6.12-101.405 0 0Z" style="fill:#737373;fill-opacity:1;fill-rule:nonzero;stroke:none" transform="matrix(1.25 0 0 -1.25 2278.713 235.71)"/><path d="m0 0-13.987-107.528 139.001 25.353L0 0Z" style="fill:#555;fill-opacity:1;fill-rule:nonzero;stroke:none" transform="matrix(1.25 0 0 -1.25 2106.056 736.195)"/><path d="m0 0 119.161-56.56L69.559 0H0Z" style="fill:#949494;fill-opacity:1;fill-rule:nonzero;stroke:none" transform="matrix(1.25 0 0 -1.25 1998.626 0)"/><path d="m0 0-93.541-40.214L36.718-148.617 0 0Z" style="fill:#3d3d3d;fill-opacity:1;fill-rule:nonzero;stroke:none" transform="matrix(1.25 0 0 -1.25 2104.963 1116.478)"/><path d="M0 0h38.13l-1.352 38.201L0 0Z" style="fill:#272727;fill-opacity:1;fill-rule:nonzero;stroke:none" transform="matrix(1.25 0 0 -1.25 2104.887 1350)"/><path d="m0 0 49.602-56.56L54.741 0H0Z" style="fill:#8f8f8f;fill-opacity:1;fill-rule:nonzero;stroke:none" transform="matrix(1.25 0 0 -1.25 2085.574 0)"/><path d="m0 0 81.302-67.315 6.994 152.988L0 0Z" style="fill:#515151;fill-opacity:1;fill-rule:nonzero;stroke:none" transform="matrix(1.25 0 0 -1.25 1978.202 977.697)"/><path d="m0 0 99.66-28.849 34.969 162.604L0 0Z" style="fill:#818181;fill-opacity:1;fill-rule:nonzero;stroke:none" transform="matrix(1.25 0 0 -1.25 1955.254 341.706)"/><path d="m0 0-43.709-152.986L90.92-19.231 0 0Z" style="fill:#878787;fill-opacity:1;fill-rule:nonzero;stroke:none" transform="matrix(1.25 0 0 -1.25 2009.89 150.473)"/><path d="m0 0-68.189-6.994 83.925-133.755L0 0Z" style="fill:#6a6a6a;fill-opacity:1;fill-rule:nonzero;stroke:none" transform="matrix(1.25 0 0 -1.25 2086.386 560.26)"/><path d="m0 0 62.242-120.379L172.391-56.56 53.23 0H0Z" style="fill:#8f8f8f;fill-opacity:1;fill-rule:nonzero;stroke:none" transform="matrix(1.25 0 0 -1.25 1932.087 0)"/><path d="m0 0 90.92-19.231 19.23 83.049L0 0Z" style="fill:#868686;fill-opacity:1;fill-rule:nonzero;stroke:none" transform="matrix(1.25 0 0 -1.25 2009.89 150.473)"/><path d="m0 0 6.48-9.35h130.71l36.778 38.2L0 0Z" style="fill:#303030;fill-opacity:1;fill-rule:nonzero;stroke:none" transform="matrix(1.25 0 0 -1.25 1933.4 1338.312)"/><path d="m0 0-43.711-137.252 173.97 28.849L0 0Z" style="fill:#393939;fill-opacity:1;fill-rule:nonzero;stroke:none" transform="matrix(1.25 0 0 -1.25 1988.037 1166.746)"/><path d="m0 0-62.943-152.988 68.188 6.994L0 0Z" style="fill:#747474;fill-opacity:1;fill-rule:nonzero;stroke:none" transform="matrix(1.25 0 0 -1.25 2079.83 377.767)"/><path d="m0 0 74.308-40.214L88.296 67.315 0 0Z" style="fill:#5c5c5c;fill-opacity:1;fill-rule:nonzero;stroke:none" transform="matrix(1.25 0 0 -1.25 1995.686 820.338)"/><path d="m0 0 36.717-181.837L99.66-28.849 0 0Z" style="fill:#7d7d7d;fill-opacity:1;fill-rule:nonzero;stroke:none" transform="matrix(1.25 0 0 -1.25 1955.254 341.706)"/><path d="m0 0-74.308-106.654 158.233-27.101L0 0Z" style="fill:#6a6a6a;fill-opacity:1;fill-rule:nonzero;stroke:none" transform="matrix(1.25 0 0 -1.25 2001.15 569.001)"/><path d="m0 0 69.937-94.415 88.296 67.314L0 0Z" style="fill:#646464;fill-opacity:1;fill-rule:nonzero;stroke:none" transform="matrix(1.25 0 0 -1.25 1908.265 702.32)"/><path d="m0 0-73.434-83.925 93.541 40.214L0 0Z" style="fill:#474747;fill-opacity:1;fill-rule:nonzero;stroke:none" transform="matrix(1.25 0 0 -1.25 2079.83 1061.84)"/><path d="m0 0-13.987-125.887 88.295 85.673L0 0Z" style="fill:#595959;fill-opacity:1;fill-rule:nonzero;stroke:none" transform="matrix(1.25 0 0 -1.25 1995.686 820.338)"/><path d="m0 0 7.868-151.239 73.434 83.924L0 0Z" style="fill:#4c4c4c;fill-opacity:1;fill-rule:nonzero;stroke:none" transform="matrix(1.25 0 0 -1.25 1978.202 977.697)"/><path d="m0 0-4.55-1.48 15.738-156.489L86.929 0H0Z" style="fill:#9e9e9e;fill-opacity:1;fill-rule:nonzero;stroke:none" transform="matrix(1.25 0 0 -1.25 1781.726 0)"/><path d="m0 0 2.622-76.056 125.013-39.34L0 0Z" style="fill:#919191;fill-opacity:1;fill-rule:nonzero;stroke:none" transform="matrix(1.25 0 0 -1.25 1795.71 197.46)"/><path d="m0 0-151.239-35.843L7.868-151.239 0 0Z" style="fill:#545454;fill-opacity:1;fill-rule:nonzero;stroke:none" transform="matrix(1.25 0 0 -1.25 1978.202 977.697)"/><path d="m0 0 63.818-49.83 43.71 137.251L0 0Z" style="fill:#414141;fill-opacity:1;fill-rule:nonzero;stroke:none" transform="matrix(1.25 0 0 -1.25 1853.626 1276.023)"/><path d="m0 0 145.994-111.9 13.987 125.887L0 0Z" style="fill:#616161;fill-opacity:1;fill-rule:nonzero;stroke:none" transform="matrix(1.25 0 0 -1.25 1795.71 837.822)"/><path d="m0 0-86.547-152.988 123.264-28.849L0 0Z" style="fill:#7f7f7f;fill-opacity:1;fill-rule:nonzero;stroke:none" transform="matrix(1.25 0 0 -1.25 1955.254 341.706)"/><path d="m0 0 127.635-115.396 43.709 152.987L0 0Z" style="fill:#8f8f8f;fill-opacity:1;fill-rule:nonzero;stroke:none" transform="matrix(1.25 0 0 -1.25 1795.71 197.46)"/><path d="m0 0-75.741-157.969 171.344 37.59L33.36 0H0Z" style="fill:#979797;fill-opacity:1;fill-rule:nonzero;stroke:none" transform="matrix(1.25 0 0 -1.25 1890.387 0)"/><path d="M0 0h14.521l-6.48 9.35L0 0Z" style="fill:#343434;fill-opacity:1;fill-rule:nonzero;stroke:none" transform="matrix(1.25 0 0 -1.25 1923.35 1350)"/><path d="m0 0 48.956-135.503 74.308 106.654L0 0Z" style="fill:#777;fill-opacity:1;fill-rule:nonzero;stroke:none" transform="matrix(1.25 0 0 -1.25 1847.07 532.94)"/><path d="m0 0-22.73-123.264 181.837 7.868L0 0Z" style="fill:#545454;fill-opacity:1;fill-rule:nonzero;stroke:none" transform="matrix(1.25 0 0 -1.25 1789.153 1022.5)"/><path d="m0 0-90.044-108.403L69.937-94.415 0 0Z" style="fill:#6a6a6a;fill-opacity:1;fill-rule:nonzero;stroke:none" transform="matrix(1.25 0 0 -1.25 1908.265 702.32)"/><path d="m0 0 74.308-79.554L181.837 7.868 0 0Z" style="fill:#4a4a4a;fill-opacity:1;fill-rule:nonzero;stroke:none" transform="matrix(1.25 0 0 -1.25 1760.741 1176.58)"/><path d="m0 0-5.245-147.742L145.994-111.9 0 0Z" style="fill:#606060;fill-opacity:1;fill-rule:nonzero;stroke:none" transform="matrix(1.25 0 0 -1.25 1795.71 837.822)"/><path d="m0 0 38.465-192.327L125.013-39.34 0 0Z" style="fill:#8a8a8a;fill-opacity:1;fill-rule:nonzero;stroke:none" transform="matrix(1.25 0 0 -1.25 1798.988 292.531)"/><path d="M0 0h62.64l8.041 9.35-63.82 49.83L0 0Z" style="fill:#3b3b3b;fill-opacity:1;fill-rule:nonzero;stroke:none" transform="matrix(1.25 0 0 -1.25 1845.05 1350)"/><path d="m0 0-81.302-154.736 130.258 19.233L0 0Z" style="fill:#787878;fill-opacity:1;fill-rule:nonzero;stroke:none" transform="matrix(1.25 0 0 -1.25 1847.07 532.94)"/><path d="m0 0 40.214-89.17 90.044 108.403L0 0Z" style="fill:#717171;fill-opacity:1;fill-rule:nonzero;stroke:none" transform="matrix(1.25 0 0 -1.25 1745.442 726.36)"/><path d="m0 0-.05-1.48L4.5 0H0Z" style="fill:#a2a2a2;fill-opacity:1;fill-rule:nonzero;stroke:none" transform="matrix(1.25 0 0 -1.25 1776.1 0)"/><path d="m0 0 101.409-46.333 5.245 147.742L0 0Z" style="fill:#666;fill-opacity:1;fill-rule:nonzero;stroke:none" transform="matrix(1.25 0 0 -1.25 1662.392 964.584)"/><path d="M0 0h17.821L-1.04 14.6 0 0Z" style="fill:#3d3d3d;fill-opacity:1;fill-rule:nonzero;stroke:none" transform="matrix(1.25 0 0 -1.25 1674.624 1350)"/><path d="m0 0-173.969-85.673L38.465-192.327 0 0Z" style="fill:#8f8f8f;fill-opacity:1;fill-rule:nonzero;stroke:none" transform="matrix(1.25 0 0 -1.25 1798.988 292.531)"/><path d="m0 0 3.497-97.912 208.937-8.742L0 0Z" style="fill:#8e8e8e;fill-opacity:1;fill-rule:nonzero;stroke:none" transform="matrix(1.25 0 0 -1.25 1581.527 399.622)"/><path d="m0 0 127.635-163.478L208.937-8.742 0 0Z" style="fill:#828282;fill-opacity:1;fill-rule:nonzero;stroke:none" transform="matrix(1.25 0 0 -1.25 1585.898 522.012)"/><path d="m0 0 18.86-14.6h118.52l6.86 59.181L0 0Z" style="fill:#404040;fill-opacity:1;fill-rule:nonzero;stroke:none" transform="matrix(1.25 0 0 -1.25 1673.325 1331.75)"/><path d="m0 0-69.937-124.139L74.308-79.554 0 0Z" style="fill:#4a4a4a;fill-opacity:1;fill-rule:nonzero;stroke:none" transform="matrix(1.25 0 0 -1.25 1760.741 1176.58)"/><path d="m0 0-110.151-30.597L15.737-156.485 0 0Z" style="fill:#a2a2a2;fill-opacity:1;fill-rule:nonzero;stroke:none" transform="matrix(1.25 0 0 -1.25 1776.04 1.854)"/><path d="m0 0 22.73-169.598 104.905 6.12L0 0Z" style="fill:#818181;fill-opacity:1;fill-rule:nonzero;stroke:none" transform="matrix(1.25 0 0 -1.25 1585.898 522.012)"/><path d="m0 0 1.06-1.48L1.111 0H0Z" style="fill:#a8a8a8;fill-opacity:1;fill-rule:nonzero;stroke:none" transform="matrix(1.25 0 0 -1.25 1774.712 0)"/><path d="m0 0 78.679-169.598 22.73 123.265L0 0Z" style="fill:#5e5e5e;fill-opacity:1;fill-rule:nonzero;stroke:none" transform="matrix(1.25 0 0 -1.25 1662.392 964.584)"/><path d="m0 0 41.962-97.038L148.617 4.371 0 0Z" style="fill:#6d6d6d;fill-opacity:1;fill-rule:nonzero;stroke:none" transform="matrix(1.25 0 0 -1.25 1609.939 843.286)"/><path d="m0 0 41.089-154.737 84.799 28.849L0 0Z" style="fill:#a0a0a0;fill-opacity:1;fill-rule:nonzero;stroke:none" transform="matrix(1.25 0 0 -1.25 1638.35 40.1)"/><path d="m0 0-84.8-28.849L2.622-76.056 0 0Z" style="fill:#989898;fill-opacity:1;fill-rule:nonzero;stroke:none" transform="matrix(1.25 0 0 -1.25 1795.71 197.46)"/><path d="m0 0-86.547-132.881L87.422-47.208 0 0Z" style="fill:#989898;fill-opacity:1;fill-rule:nonzero;stroke:none" transform="matrix(1.25 0 0 -1.25 1689.711 233.521)"/><path d="m0 0-108.403-93.541L40.214-89.17 0 0Z" style="fill:#727272;fill-opacity:1;fill-rule:nonzero;stroke:none" transform="matrix(1.25 0 0 -1.25 1745.442 726.36)"/><path d="m0 0-65.566-182.711 144.245 13.113L0 0Z" style="fill:#5e5e5e;fill-opacity:1;fill-rule:nonzero;stroke:none" transform="matrix(1.25 0 0 -1.25 1662.392 964.584)"/><path d="m0 0-7.47-32.081L102.68-1.48 101.62 0H0Z" style="fill:#a9a9a9;fill-opacity:1;fill-rule:nonzero;stroke:none" transform="matrix(1.25 0 0 -1.25 1647.687 0)"/><path d="m0 0 74.308-111.025 69.937 124.138L0 0Z" style="fill:#515151;fill-opacity:1;fill-rule:nonzero;stroke:none" transform="matrix(1.25 0 0 -1.25 1580.434 1192.972)"/><path d="m0 0-3.497-87.421L104.906 6.12 0 0Z" style="fill:#787878;fill-opacity:1;fill-rule:nonzero;stroke:none" transform="matrix(1.25 0 0 -1.25 1614.31 734.01)"/><path d="m0 0-53.326-109.277 80.428-95.29L0 0Z" style="fill:#ababab;fill-opacity:1;fill-rule:nonzero;stroke:none" transform="matrix(1.25 0 0 -1.25 1480.99 53.214)"/><path d="m0 0 76.057-157.359 65.566 182.711L0 0Z" style="fill:#676767;fill-opacity:1;fill-rule:nonzero;stroke:none" transform="matrix(1.25 0 0 -1.25 1485.363 996.274)"/><path d="m0 0 41.37-32.081L48.84 0H0Z" style="fill:#afafaf;fill-opacity:1;fill-rule:nonzero;stroke:none" transform="matrix(1.25 0 0 -1.25 1586.637 0)"/><path d="M0 0h106.609l-1.039 14.6-147.75 12.24L0 0Z" style="fill:#474747;fill-opacity:1;fill-rule:nonzero;stroke:none" transform="matrix(1.25 0 0 -1.25 1541.362 1350)"/><path d="m0 0 53.327-72.56 86.547 132.881L0 0Z" style="fill:#9d9d9d;fill-opacity:1;fill-rule:nonzero;stroke:none" transform="matrix(1.25 0 0 -1.25 1514.868 308.923)"/><path d="m0 0-125.888-10.491L41.089-154.737 0 0Z" style="fill:#a8a8a8;fill-opacity:1;fill-rule:nonzero;stroke:none" transform="matrix(1.25 0 0 -1.25 1638.35 40.1)"/><path d="m0 0 27.102-204.567 139.874 60.321L0 0Z" style="fill:#a6a6a6;fill-opacity:1;fill-rule:nonzero;stroke:none" transform="matrix(1.25 0 0 -1.25 1480.99 53.214)"/><path d="m0 0-87.422-116.271L22.73-169.598 0 0Z" style="fill:#878787;fill-opacity:1;fill-rule:nonzero;stroke:none" transform="matrix(1.25 0 0 -1.25 1585.898 522.012)"/><path d="m0 0-73.434-98.786 147.742-12.239L0 0Z" style="fill:#515151;fill-opacity:1;fill-rule:nonzero;stroke:none" transform="matrix(1.25 0 0 -1.25 1580.434 1192.972)"/><path d="M0 0h46.32L4.14 26.84 0 0Z" style="fill:#464646;fill-opacity:1;fill-rule:nonzero;stroke:none" transform="matrix(1.25 0 0 -1.25 1483.462 1350)"/><path d="m0 0-84.799-8.742L41.962-97.038 0 0Z" style="fill:#727272;fill-opacity:1;fill-rule:nonzero;stroke:none" transform="matrix(1.25 0 0 -1.25 1609.939 843.286)"/><path d="m0 0-14.862-113.648 141.623 25.352L0 0Z" style="fill:#707070;fill-opacity:1;fill-rule:nonzero;stroke:none" transform="matrix(1.25 0 0 -1.25 1503.94 854.214)"/><path d="m0 0-26.226-118.019 102.283-39.34L0 0Z" style="fill:#666;fill-opacity:1;fill-rule:nonzero;stroke:none" transform="matrix(1.25 0 0 -1.25 1485.363 996.274)"/><path d="m0 0 1.012-42.571L126.9-32.081 85.53 0H0Z" style="fill:#b1b1b1;fill-opacity:1;fill-rule:nonzero;stroke:none" transform="matrix(1.25 0 0 -1.25 1479.725 0)"/><path d="m0 0-56.824-77.805L3.497-97.912 0 0Z" style="fill:#959595;fill-opacity:1;fill-rule:nonzero;stroke:none" transform="matrix(1.25 0 0 -1.25 1581.527 399.622)"/><path d="m0 0 84.799 8.742 3.497 87.422L0 0Z" style="fill:#797979;fill-opacity:1;fill-rule:nonzero;stroke:none" transform="matrix(1.25 0 0 -1.25 1503.94 854.214)"/><path d="m0 0 21.855-149.491 88.296 96.164L0 0Z" style="fill:gray;fill-opacity:1;fill-rule:nonzero;stroke:none" transform="matrix(1.25 0 0 -1.25 1476.621 667.35)"/><path d="m0 0-27.101-136.378L60.321-20.107 0 0Z" style="fill:#909090;fill-opacity:1;fill-rule:nonzero;stroke:none" transform="matrix(1.25 0 0 -1.25 1510.497 496.879)"/><path d="m0 0 28.849-138.126 73.434 98.786L0 0Z" style="fill:#5b5b5b;fill-opacity:1;fill-rule:nonzero;stroke:none" transform="matrix(1.25 0 0 -1.25 1452.58 1143.798)"/><path d="m0 0-3.497-150.365L53.327-72.56 0 0Z" style="fill:#9b9b9b;fill-opacity:1;fill-rule:nonzero;stroke:none" transform="matrix(1.25 0 0 -1.25 1514.868 308.923)"/><path d="m0 0-176.591-89.17 198.446-60.321L0 0Z" style="fill:#858585;fill-opacity:1;fill-rule:nonzero;stroke:none" transform="matrix(1.25 0 0 -1.25 1476.621 667.35)"/><path d="m0 0 147.742 24.478 14.862 113.648L0 0Z" style="fill:#757575;fill-opacity:1;fill-rule:nonzero;stroke:none" transform="matrix(1.25 0 0 -1.25 1300.685 1026.871)"/><path d="m0 0 152.113-91.793 27.101 136.378L0 0Z" style="fill:#949494;fill-opacity:1;fill-rule:nonzero;stroke:none" transform="matrix(1.25 0 0 -1.25 1286.48 552.61)"/><path d="m0 0-23.604-168.723 179.214 44.585L0 0Z" style="fill:#a1a1a1;fill-opacity:1;fill-rule:nonzero;stroke:none" transform="matrix(1.25 0 0 -1.25 1315.984 341.706)"/><path d="m0 0-48.082-30.598 128.51-64.691L0 0Z" style="fill:#ababab;fill-opacity:1;fill-rule:nonzero;stroke:none" transform="matrix(1.25 0 0 -1.25 1414.333 189.81)"/><path d="m0 0-30.598-90.918L128.51-64.692 0 0Z" style="fill:#aaa;fill-opacity:1;fill-rule:nonzero;stroke:none" transform="matrix(1.25 0 0 -1.25 1354.231 228.058)"/><path d="m0 0 155.61-124.138 3.497 150.364L0 0Z" style="fill:#a1a1a1;fill-opacity:1;fill-rule:nonzero;stroke:none" transform="matrix(1.25 0 0 -1.25 1315.984 341.706)"/><path d="m0 0-129.384-118.019 158.233-20.107L0 0Z" style="fill:#5c5c5c;fill-opacity:1;fill-rule:nonzero;stroke:none" transform="matrix(1.25 0 0 -1.25 1452.58 1143.798)"/><path d="m0 0 4.371-69.937 147.742-21.856L0 0Z" style="fill:#949494;fill-opacity:1;fill-rule:nonzero;stroke:none" transform="matrix(1.25 0 0 -1.25 1286.48 552.61)"/><path d="m0 0-10.2-4.98 151.243-37.591L140.03 0H0Z" style="fill:#b8b8b8;fill-opacity:1;fill-rule:nonzero;stroke:none" transform="matrix(1.25 0 0 -1.25 1304.687 0)"/><path d="M0 0h31.389l4.14 26.84L0 0Z" style="fill:#4c4c4c;fill-opacity:1;fill-rule:nonzero;stroke:none" transform="matrix(1.25 0 0 -1.25 1444.226 1350)"/><path d="M0 0h123.57l35.529 26.84L.869 46.939 0 0Z" style="fill:#535353;fill-opacity:1;fill-rule:nonzero;stroke:none" transform="matrix(1.25 0 0 -1.25 1289.763 1350)"/><path d="m0 0 35.843-198.447L198.447-60.321 0 0Z" style="fill:#7f7f7f;fill-opacity:1;fill-rule:nonzero;stroke:none" transform="matrix(1.25 0 0 -1.25 1255.882 778.813)"/><path d="m0 0-28.849-111.025 176.591 89.17L0 0Z" style="fill:#8e8e8e;fill-opacity:1;fill-rule:nonzero;stroke:none" transform="matrix(1.25 0 0 -1.25 1291.943 640.031)"/><path d="m0 0 121.516-93.541 26.226 118.019L0 0Z" style="fill:#6f6f6f;fill-opacity:1;fill-rule:nonzero;stroke:none" transform="matrix(1.25 0 0 -1.25 1300.685 1026.871)"/><path d="m0 0 97.912-146.868 53.326 109.277L0 0Z" style="fill:#b4b4b4;fill-opacity:1;fill-rule:nonzero;stroke:none" transform="matrix(1.25 0 0 -1.25 1291.943 6.226)"/><path d="m0 0 .45-4.98L10.65 0H0Z" style="fill:#bebebe;fill-opacity:1;fill-rule:nonzero;stroke:none" transform="matrix(1.25 0 0 -1.25 1291.375 0)"/><path d="m0 0-14.862-91.793 136.378-1.748L0 0Z" style="fill:#6e6e6e;fill-opacity:1;fill-rule:nonzero;stroke:none" transform="matrix(1.25 0 0 -1.25 1300.685 1026.871)"/><path d="m0 0 6.994-119.767L136.378-1.748 0 0Z" style="fill:#666;fill-opacity:1;fill-rule:nonzero;stroke:none" transform="matrix(1.25 0 0 -1.25 1282.108 1141.612)"/><path d="m0 0 49.83-177.466 48.082 30.598L0 0Z" style="fill:#b4b4b4;fill-opacity:1;fill-rule:nonzero;stroke:none" transform="matrix(1.25 0 0 -1.25 1291.943 6.226)"/><path d="M0 0h44.941l.869 46.939L0 0Z" style="fill:#575757;fill-opacity:1;fill-rule:nonzero;stroke:none" transform="matrix(1.25 0 0 -1.25 1233.587 1350)"/><path d="m0 0-72.56-185.334 108.403-13.113L0 0Z" style="fill:#818181;fill-opacity:1;fill-rule:nonzero;stroke:none" transform="matrix(1.25 0 0 -1.25 1255.882 778.813)"/><path d="m0 0-134.628-168.722 184.458-8.744L0 0Z" style="fill:#b9b9b9;fill-opacity:1;fill-rule:nonzero;stroke:none" transform="matrix(1.25 0 0 -1.25 1291.943 6.226)"/><path d="m0 0 52.451-55.077L184.458-8.743 0 0Z" style="fill:#b6b6b6;fill-opacity:1;fill-rule:nonzero;stroke:none" transform="matrix(1.25 0 0 -1.25 1123.659 217.128)"/><path d="m0 0 101.409-44.585 30.597 90.918L0 0Z" style="fill:#b0b0b0;fill-opacity:1;fill-rule:nonzero;stroke:none" transform="matrix(1.25 0 0 -1.25 1189.223 285.974)"/><path d="m0 0 11.365-179.214L83.925 6.12 0 0Z" style="fill:#8a8a8a;fill-opacity:1;fill-rule:nonzero;stroke:none" transform="matrix(1.25 0 0 -1.25 1150.976 786.462)"/><path d="m0 0-97.912-14.862L6.994-119.767 0 0Z" style="fill:#6a6a6a;fill-opacity:1;fill-rule:nonzero;stroke:none" transform="matrix(1.25 0 0 -1.25 1282.108 1141.612)"/><path d="m0 0-24.593-173.703L110.03-4.98 94.971 0H0Z" style="fill:#c1c1c1;fill-opacity:1;fill-rule:nonzero;stroke:none" transform="matrix(1.25 0 0 -1.25 1154.4 0)"/><path d="m0 0 15.06-4.98L14.61 0H0Z" style="fill:#c3c3c3;fill-opacity:1;fill-rule:nonzero;stroke:none" transform="matrix(1.25 0 0 -1.25 1273.113 0)"/><path d="m0 0 118.893.874 23.604 168.724L0 0Z" style="fill:#a5a5a5;fill-opacity:1;fill-rule:nonzero;stroke:none" transform="matrix(1.25 0 0 -1.25 1137.863 553.703)"/><path d="m0 0-41.088-214.183L101.409-44.585 0 0Z" style="fill:#aeaeae;fill-opacity:1;fill-rule:nonzero;stroke:none" transform="matrix(1.25 0 0 -1.25 1189.223 285.974)"/><path d="m0 0-68.189-52.453 72.56-17.484L0 0Z" style="fill:#9a9a9a;fill-opacity:1;fill-rule:nonzero;stroke:none" transform="matrix(1.25 0 0 -1.25 1286.48 552.61)"/><path d="m0 0 43.711-128.51L72.56-17.484 0 0Z" style="fill:#959595;fill-opacity:1;fill-rule:nonzero;stroke:none" transform="matrix(1.25 0 0 -1.25 1201.244 618.176)"/><path d="m0 0 93.541-104.906 14.862 91.793L0 0Z" style="fill:#777;fill-opacity:1;fill-rule:nonzero;stroke:none" transform="matrix(1.25 0 0 -1.25 1165.182 1010.48)"/><path d="m0 0-4.371-119.767 97.912 14.861L0 0Z" style="fill:#767676;fill-opacity:1;fill-rule:nonzero;stroke:none" transform="matrix(1.25 0 0 -1.25 1165.182 1010.48)"/><path d="M0 0h29.92l45.81 46.939L-29.18 151.85 0 0Z" style="fill:#636363;fill-opacity:1;fill-rule:nonzero;stroke:none" transform="matrix(1.25 0 0 -1.25 1196.188 1350)"/><path d="m0 0-40.214-134.629 83.925 6.119L0 0Z" style="fill:#939393;fill-opacity:1;fill-rule:nonzero;stroke:none" transform="matrix(1.25 0 0 -1.25 1201.244 618.176)"/><path d="m0 0 50.704-51.579L118.893.874 0 0Z" style="fill:#9f9f9f;fill-opacity:1;fill-rule:nonzero;stroke:none" transform="matrix(1.25 0 0 -1.25 1137.863 553.703)"/><path d="m0 0-78.813-104.64 72.56-69.063L18.339 0H0Z" style="fill:#c5c5c5;fill-opacity:1;fill-rule:nonzero;stroke:none" transform="matrix(1.25 0 0 -1.25 1131.476 0)"/><path d="m0 0-40.361-20.719-2.621-83.921L35.831 0H0Z" style="fill:#c9c9c9;fill-opacity:1;fill-rule:nonzero;stroke:none" transform="matrix(1.25 0 0 -1.25 1086.687 0)"/><path d="m0 0 97.038-175.717 41.088 214.182L0 0Z" style="fill:#b4b4b4;fill-opacity:1;fill-rule:nonzero;stroke:none" transform="matrix(1.25 0 0 -1.25 1016.566 334.056)"/><path d="m0 0-13.111-110.15L100.535 22.73 0 0Z" style="fill:#717171;fill-opacity:1;fill-rule:nonzero;stroke:none" transform="matrix(1.25 0 0 -1.25 1034.05 1188.601)"/><path d="m0 0-180.088-41.962L11.365-179.214 0 0Z" style="fill:#8f8f8f;fill-opacity:1;fill-rule:nonzero;stroke:none" transform="matrix(1.25 0 0 -1.25 1150.976 786.462)"/><path d="m0 0 93.541-91.793 40.214 134.63L0 0Z" style="fill:#9a9a9a;fill-opacity:1;fill-rule:nonzero;stroke:none" transform="matrix(1.25 0 0 -1.25 1034.05 671.722)"/><path d="m0 0-83.05-94.415L50.704-51.579 0 0Z" style="fill:#a1a1a1;fill-opacity:1;fill-rule:nonzero;stroke:none" transform="matrix(1.25 0 0 -1.25 1137.863 553.703)"/><path d="m0 0 62.851-18.969h79.97l-29.18 151.849L0 0Z" style="fill:#676767;fill-opacity:1;fill-rule:nonzero;stroke:none" transform="matrix(1.25 0 0 -1.25 1017.661 1326.288)"/><path d="M0 0h56.06L-6.79 18.969 0 0Z" style="fill:#5c5c5c;fill-opacity:1;fill-rule:nonzero;stroke:none" transform="matrix(1.25 0 0 -1.25 1026.15 1350)"/><path d="m0 0 11.365-152.988 180.088 15.736L0 0Z" style="fill:#8c8c8c;fill-opacity:1;fill-rule:nonzero;stroke:none" transform="matrix(1.25 0 0 -1.25 925.866 838.915)"/><path d="m0 0 100.535 22.73 4.371 119.767L0 0Z" style="fill:#7a7a7a;fill-opacity:1;fill-rule:nonzero;stroke:none" transform="matrix(1.25 0 0 -1.25 1034.05 1188.601)"/><path d="m0 0-85.674-93.542L52.451-55.077 0 0Z" style="fill:#bbb;fill-opacity:1;fill-rule:nonzero;stroke:none" transform="matrix(1.25 0 0 -1.25 1123.659 217.128)"/><path d="M0 0h10.97L4.18 18.969 0 0Z" style="fill:#5c5c5c;fill-opacity:1;fill-rule:nonzero;stroke:none" transform="matrix(1.25 0 0 -1.25 1012.437 1350)"/><path d="m0 0-71.686-114.522 168.724-61.195L0 0Z" style="fill:#b5b5b5;fill-opacity:1;fill-rule:nonzero;stroke:none" transform="matrix(1.25 0 0 -1.25 1016.566 334.056)"/><path d="m0 0 75.182-126.761L180.088 15.736 0 0Z" style="fill:#818181;fill-opacity:1;fill-rule:nonzero;stroke:none" transform="matrix(1.25 0 0 -1.25 940.072 1030.15)"/><path d="m0 0 5.319-20.719L45.68 0H0Z" style="fill:#cecece;fill-opacity:1;fill-rule:nonzero;stroke:none" transform="matrix(1.25 0 0 -1.25 1029.588 0)"/><path d="m0 0-86.547-133.755L93.541-91.793 0 0Z" style="fill:#9a9a9a;fill-opacity:1;fill-rule:nonzero;stroke:none" transform="matrix(1.25 0 0 -1.25 1034.05 671.722)"/><path d="m0 0 85.673-155.61 83.051 94.415L0 0Z" style="fill:#ababab;fill-opacity:1;fill-rule:nonzero;stroke:none" transform="matrix(1.25 0 0 -1.25 926.958 477.209)"/><path d="m0 0-13.115-162.604L72.56-69.062 0 0Z" style="fill:#c1c1c1;fill-opacity:1;fill-rule:nonzero;stroke:none" transform="matrix(1.25 0 0 -1.25 1032.959 130.8)"/><path d="M0 0h22.72l4.179 18.969L0 0Z" style="fill:#636363;fill-opacity:1;fill-rule:nonzero;stroke:none" transform="matrix(1.25 0 0 -1.25 984.038 1350)"/><path d="m0 0 154.736-78.679 13.115 162.604L0 0Z" style="fill:#c7c7c7;fill-opacity:1;fill-rule:nonzero;stroke:none" transform="matrix(1.25 0 0 -1.25 823.146 235.707)"/><path d="m0 0 41.962-103.157L128.51 30.597 0 0Z" style="fill:#a2a2a2;fill-opacity:1;fill-rule:nonzero;stroke:none" transform="matrix(1.25 0 0 -1.25 873.413 709.969)"/><path d="m0 0-49.83-43.711L85.673-155.61 0 0Z" style="fill:#b1b1b1;fill-opacity:1;fill-rule:nonzero;stroke:none" transform="matrix(1.25 0 0 -1.25 926.958 477.209)"/><path d="m0 0 6.994-142.497L135.503-111.9 0 0Z" style="fill:#ababab;fill-opacity:1;fill-rule:nonzero;stroke:none" transform="matrix(1.25 0 0 -1.25 864.67 531.847)"/><path d="m0 0-141.623-120.642 216.805-6.119L0 0Z" style="fill:#858585;fill-opacity:1;fill-rule:nonzero;stroke:none" transform="matrix(1.25 0 0 -1.25 940.072 1030.15)"/><path d="m0 0 195.828-32.343 13.111 110.15L0 0Z" style="fill:#737373;fill-opacity:1;fill-rule:nonzero;stroke:none" transform="matrix(1.25 0 0 -1.25 772.877 1285.86)"/><path d="m0 0 7.867-83.927L216.805-6.12 0 0Z" style="fill:#7d7d7d;fill-opacity:1;fill-rule:nonzero;stroke:none" transform="matrix(1.25 0 0 -1.25 763.043 1180.952)"/><path d="m0 0 164.356-62.942 2.622 83.922L0 0Z" style="fill:#cfcfcf;fill-opacity:1;fill-rule:nonzero;stroke:none" transform="matrix(1.25 0 0 -1.25 827.514 52.124)"/><path d="m0 0-36.009-41.699 166.978 20.98L125.65 0H0Z" style="fill:#d4d4d4;fill-opacity:1;fill-rule:nonzero;stroke:none" transform="matrix(1.25 0 0 -1.25 872.525 0)"/><path d="m0 0-3.495-146.867 167.851 83.925L0 0Z" style="fill:#d0d0d0;fill-opacity:1;fill-rule:nonzero;stroke:none" transform="matrix(1.25 0 0 -1.25 827.514 52.124)"/><path d="m0 0 95.289-83.05 71.686 114.522L0 0Z" style="fill:#bfbfbf;fill-opacity:1;fill-rule:nonzero;stroke:none" transform="matrix(1.25 0 0 -1.25 807.847 373.396)"/><path d="m0 0-12.239-110.151 166.975 31.472L0 0Z" style="fill:#c6c6c6;fill-opacity:1;fill-rule:nonzero;stroke:none" transform="matrix(1.25 0 0 -1.25 823.146 235.707)"/><path d="M0 0h145.19l26.899 18.969-195.828 32.343L0 0Z" style="fill:#6d6d6d;fill-opacity:1;fill-rule:nonzero;stroke:none" transform="matrix(1.25 0 0 -1.25 802.55 1350)"/><path d="m0 0-30.598-105.78L111.025 14.862 0 0Z" style="fill:#8c8c8c;fill-opacity:1;fill-rule:nonzero;stroke:none" transform="matrix(1.25 0 0 -1.25 801.29 1048.727)"/><path d="m0 0-5.169-41.699L30.84 0H0Z" style="fill:#dadada;fill-opacity:1;fill-rule:nonzero;stroke:none" transform="matrix(1.25 0 0 -1.25 833.975 0)"/><path d="m0 0-111.025-29.723 122.39-123.265L0 0Z" style="fill:#979797;fill-opacity:1;fill-rule:nonzero;stroke:none" transform="matrix(1.25 0 0 -1.25 925.866 838.915)"/><path d="m0 0 29.821-41.699L34.99 0H0Z" style="fill:#dedede;fill-opacity:1;fill-rule:nonzero;stroke:none" transform="matrix(1.25 0 0 -1.25 790.237 0)"/><path d="m0 0 11.365-138.126 111.025 14.862L0 0Z" style="fill:#939393;fill-opacity:1;fill-rule:nonzero;stroke:none" transform="matrix(1.25 0 0 -1.25 787.084 876.07)"/><path d="m0 0-69.063-132.881 111.025 29.724L0 0Z" style="fill:#a0a0a0;fill-opacity:1;fill-rule:nonzero;stroke:none" transform="matrix(1.25 0 0 -1.25 873.413 709.969)"/><path d="m0 0 45.459-126.761 49.83 43.711L0 0Z" style="fill:#bdbdbd;fill-opacity:1;fill-rule:nonzero;stroke:none" transform="matrix(1.25 0 0 -1.25 807.847 373.396)"/><path d="m0 0 97.052-41.699L67.23 0H0Z" style="fill:#dedede;fill-opacity:1;fill-rule:nonzero;stroke:none" transform="matrix(1.25 0 0 -1.25 706.2 0)"/><path d="m0 0-76.931-77.805 122.39-48.956L0 0Z" style="fill:#c1c1c1;fill-opacity:1;fill-rule:nonzero;stroke:none" transform="matrix(1.25 0 0 -1.25 807.847 373.396)"/><path d="m0 0-126.761-116.271L6.994-142.497 0 0Z" style="fill:#b0b0b0;fill-opacity:1;fill-rule:nonzero;stroke:none" transform="matrix(1.25 0 0 -1.25 864.67 531.847)"/><path d="m0 0 64.692-159.107 69.063 132.881L0 0Z" style="fill:#a8a8a8;fill-opacity:1;fill-rule:nonzero;stroke:none" transform="matrix(1.25 0 0 -1.25 706.22 677.185)"/><path d="m0 0 144.246-10.489 3.494 146.866L0 0Z" style="fill:#d4d4d4;fill-opacity:1;fill-rule:nonzero;stroke:none" transform="matrix(1.25 0 0 -1.25 642.839 222.596)"/><path d="m0 0-4.371-165.227L122.39-48.956 0 0Z" style="fill:#b9b9b9;fill-opacity:1;fill-rule:nonzero;stroke:none" transform="matrix(1.25 0 0 -1.25 711.683 470.652)"/><path d="m0 0-32.346-134.629 97.038-24.478L0 0Z" style="fill:#a7a7a7;fill-opacity:1;fill-rule:nonzero;stroke:none" transform="matrix(1.25 0 0 -1.25 706.22 677.185)"/><path d="M0 0h121.09L97.351 51.312 0 0Z" style="fill:#717171;fill-opacity:1;fill-rule:nonzero;stroke:none" transform="matrix(1.25 0 0 -1.25 651.187 1350)"/><path d="m0 0-110.151-62.943 121.516-75.183L0 0Z" style="fill:#999;fill-opacity:1;fill-rule:nonzero;stroke:none" transform="matrix(1.25 0 0 -1.25 787.084 876.07)"/><path d="m0 0 10.491-139.873 121.516 19.233L0 0Z" style="fill:#cdcdcd;fill-opacity:1;fill-rule:nonzero;stroke:none" transform="matrix(1.25 0 0 -1.25 642.839 222.596)"/><path d="m0 0 132.007-120.64 12.239 110.151L0 0Z" style="fill:#cdcdcd;fill-opacity:1;fill-rule:nonzero;stroke:none" transform="matrix(1.25 0 0 -1.25 642.839 222.596)"/><path d="m0 0-34.6-178.077L113.141-41.699 16.089 0H0Z" style="fill:#d9d9d9;fill-opacity:1;fill-rule:nonzero;stroke:none" transform="matrix(1.25 0 0 -1.25 686.088 0)"/><path d="m0 0-41.087-17.486L7.867-83.927 0 0Z" style="fill:gray;fill-opacity:1;fill-rule:nonzero;stroke:none" transform="matrix(1.25 0 0 -1.25 763.043 1180.952)"/><path d="m0 0 41.087 17.486 30.598 105.779L0 0Z" style="fill:#898989;fill-opacity:1;fill-rule:nonzero;stroke:none" transform="matrix(1.25 0 0 -1.25 711.684 1202.809)"/><path d="m0 0 44.585-58.572 76.931 77.805L0 0Z" style="fill:#c7c7c7;fill-opacity:1;fill-rule:nonzero;stroke:none" transform="matrix(1.25 0 0 -1.25 655.952 397.437)"/><path d="m0 0 49.831-198.448 71.685 123.266L0 0Z" style="fill:#919191;fill-opacity:1;fill-rule:nonzero;stroke:none" transform="matrix(1.25 0 0 -1.25 649.395 954.749)"/><path d="m0 0-13.113-87.421L97.038-24.478 0 0Z" style="fill:#a0a0a0;fill-opacity:1;fill-rule:nonzero;stroke:none" transform="matrix(1.25 0 0 -1.25 665.787 845.472)"/><path d="M0 0h11.299l97.352 51.312-48.954 66.441L0 0Z" style="fill:#7b7b7b;fill-opacity:1;fill-rule:nonzero;stroke:none" transform="matrix(1.25 0 0 -1.25 637.063 1350)"/><path d="m0 0-104.811-150.1 73.432-27.977L3.22 0H0Z" style="fill:#dbdbdb;fill-opacity:1;fill-rule:nonzero;stroke:none" transform="matrix(1.25 0 0 -1.25 682.063 0)"/><path d="m0 0 17.899-150.1L122.711 0H0Z" style="fill:#e1e1e1;fill-opacity:1;fill-rule:nonzero;stroke:none" transform="matrix(1.25 0 0 -1.25 528.675 0)"/><path d="m0 0 94.415-33.22 32.346 134.629L0 0Z" style="fill:#acacac;fill-opacity:1;fill-rule:nonzero;stroke:none" transform="matrix(1.25 0 0 -1.25 547.768 803.947)"/><path d="M0 0h10.86l59.697 117.753-182.709 17.486L0 0Z" style="fill:#838383;fill-opacity:1;fill-rule:nonzero;stroke:none" transform="matrix(1.25 0 0 -1.25 623.487 1350)"/><path d="m0 0-139-69.937L49.831-198.448 0 0Z" style="fill:#969696;fill-opacity:1;fill-rule:nonzero;stroke:none" transform="matrix(1.25 0 0 -1.25 649.395 954.749)"/><path d="m0 0 6.122-111.024 182.709-17.487L0 0Z" style="fill:#919191;fill-opacity:1;fill-rule:nonzero;stroke:none" transform="matrix(1.25 0 0 -1.25 475.645 1042.17)"/><path d="m0 0-149.491-41.962 194.076-16.61L0 0Z" style="fill:#cacaca;fill-opacity:1;fill-rule:nonzero;stroke:none" transform="matrix(1.25 0 0 -1.25 655.952 397.437)"/><path d="m0 0 206.315-20.107 4.371 165.227L0 0Z" style="fill:#bcbcbc;fill-opacity:1;fill-rule:nonzero;stroke:none" transform="matrix(1.25 0 0 -1.25 448.326 652.052)"/><path d="m0 0-16.61-161.73L194.076-16.61 0 0Z" style="fill:#c5c5c5;fill-opacity:1;fill-rule:nonzero;stroke:none" transform="matrix(1.25 0 0 -1.25 469.089 449.89)"/><path d="m0 0 79.554-121.516L206.315-20.107 0 0Z" style="fill:#b4b4b4;fill-opacity:1;fill-rule:nonzero;stroke:none" transform="matrix(1.25 0 0 -1.25 448.326 652.052)"/><path d="m0 0-142.497-83.923 152.988-55.95L0 0Z" style="fill:#d3d3d3;fill-opacity:1;fill-rule:nonzero;stroke:none" transform="matrix(1.25 0 0 -1.25 642.839 222.596)"/><path d="m0 0-69.064-111.9L73.432-27.976 0 0Z" style="fill:#d8d8d8;fill-opacity:1;fill-rule:nonzero;stroke:none" transform="matrix(1.25 0 0 -1.25 551.048 187.625)"/><path d="m0 0 81.302-120.642L94.415-33.22 0 0Z" style="fill:#a5a5a5;fill-opacity:1;fill-rule:nonzero;stroke:none" transform="matrix(1.25 0 0 -1.25 547.768 803.947)"/><path d="m0 0 3.497-97.912L152.988-55.95 0 0Z" style="fill:#d0d0d0;fill-opacity:1;fill-rule:nonzero;stroke:none" transform="matrix(1.25 0 0 -1.25 464.717 327.5)"/><path d="M0 0h143.53L31.378 135.239 0 0Z" style="fill:gray;fill-opacity:1;fill-rule:nonzero;stroke:none" transform="matrix(1.25 0 0 -1.25 444.075 1350)"/><path d="m0 0-57.698-190.579 139 69.937L0 0Z" style="fill:#a2a2a2;fill-opacity:1;fill-rule:nonzero;stroke:none" transform="matrix(1.25 0 0 -1.25 547.768 803.947)"/><path d="m0 0 92.667-132.006 57.698 190.578L0 0Z" style="fill:#a8a8a8;fill-opacity:1;fill-rule:nonzero;stroke:none" transform="matrix(1.25 0 0 -1.25 359.812 877.162)"/><path d="m0 0-59.447-27.101 139.001-94.415L0 0Z" style="fill:#b8b8b8;fill-opacity:1;fill-rule:nonzero;stroke:none" transform="matrix(1.25 0 0 -1.25 448.326 652.052)"/><path d="m0 0 157.359-84.799 69.064 111.9L0 0Z" style="fill:#dcdcdc;fill-opacity:1;fill-rule:nonzero;stroke:none" transform="matrix(1.25 0 0 -1.25 268.02 221.501)"/><path d="m0 0-20.983-119.769L205.44-92.668 0 0Z" style="fill:#e3e3e3;fill-opacity:1;fill-rule:nonzero;stroke:none" transform="matrix(1.25 0 0 -1.25 294.248 71.79)"/><path d="m0 0-187.541-57.432L17.899-150.1 0 0Z" style="fill:#e4e4e4;fill-opacity:1;fill-rule:nonzero;stroke:none" transform="matrix(1.25 0 0 -1.25 528.675 0)"/><path d="m0 0-11.365-152.988L139-94.415 0 0Z" style="fill:#b2b2b2;fill-opacity:1;fill-rule:nonzero;stroke:none" transform="matrix(1.25 0 0 -1.25 374.018 685.928)"/><path d="m0 0 83.05-114.522 16.61 161.73L0 0Z" style="fill:#c9c9c9;fill-opacity:1;fill-rule:nonzero;stroke:none" transform="matrix(1.25 0 0 -1.25 344.513 508.9)"/><path d="M0 0h59.89l31.378 135.239L0 0Z" style="fill:#838383;fill-opacity:1;fill-rule:nonzero;stroke:none" transform="matrix(1.25 0 0 -1.25 369.213 1350)"/><path d="m0 0-13.531-57.432L174.01 0H0Z" style="fill:#ececec;fill-opacity:1;fill-rule:nonzero;stroke:none" transform="matrix(1.25 0 0 -1.25 311.163 0)"/><path d="M0 0h-157.359L3.497-97.912 0 0Z" style="fill:#d6d6d6;fill-opacity:1;fill-rule:nonzero;stroke:none" transform="matrix(1.25 0 0 -1.25 464.717 327.5)"/><path d="m0 0 61.195-145.12 99.661 47.208L0 0Z" style="fill:#d4d4d4;fill-opacity:1;fill-rule:nonzero;stroke:none" transform="matrix(1.25 0 0 -1.25 268.02 327.5)"/><path d="m0 0-19.233-78.679L131.132-16.61 0 0Z" style="fill:#9f9f9f;fill-opacity:1;fill-rule:nonzero;stroke:none" transform="matrix(1.25 0 0 -1.25 311.73 1021.408)"/><path d="m0 0-38.465-115.396 131.132-16.61L0 0Z" style="fill:#a4a4a4;fill-opacity:1;fill-rule:nonzero;stroke:none" transform="matrix(1.25 0 0 -1.25 359.812 877.162)"/><path d="m0 0-150.365-62.069L6.122-111.024 0 0Z" style="fill:#999;fill-opacity:1;fill-rule:nonzero;stroke:none" transform="matrix(1.25 0 0 -1.25 475.645 1042.17)"/><path d="M0 0h7.19l91.268 135.239-156.486 48.956L0 0Z" style="fill:#8e8e8e;fill-opacity:1;fill-rule:nonzero;stroke:none" transform="matrix(1.25 0 0 -1.25 360.225 1350)"/><path d="M0 0v-84.799h157.359L0 0Z" style="fill:#ddd;fill-opacity:1;fill-rule:nonzero;stroke:none" transform="matrix(1.25 0 0 -1.25 268.02 221.501)"/><path d="m0 0 23.604-141.623 59.446 27.101L0 0Z" style="fill:#c2c2c2;fill-opacity:1;fill-rule:nonzero;stroke:none" transform="matrix(1.25 0 0 -1.25 344.513 508.9)"/><path d="m0 0 112.85-49.57h14.24L69.061 134.625 0 0Z" style="fill:#8d8d8d;fill-opacity:1;fill-rule:nonzero;stroke:none" transform="matrix(1.25 0 0 -1.25 201.363 1288.037)"/><path d="m0 0 13.115-89.165L82.176 45.459 0 0Z" style="fill:#969696;fill-opacity:1;fill-rule:nonzero;stroke:none" transform="matrix(1.25 0 0 -1.25 184.969 1176.58)"/><path d="m0 0 27.101-162.604L162.604 4.371 0 0Z" style="fill:#cbcbcb;fill-opacity:1;fill-rule:nonzero;stroke:none" transform="matrix(1.25 0 0 -1.25 141.258 514.363)"/><path d="m0 0-23.441-38.201 68.19-19.231L58.28 0H0Z" style="fill:#efefef;fill-opacity:1;fill-rule:nonzero;stroke:none" transform="matrix(1.25 0 0 -1.25 238.312 0)"/><path d="m0 0 17.399-38.201L40.839 0H0Z" style="fill:#f4f4f4;fill-opacity:1;fill-rule:nonzero;stroke:none" transform="matrix(1.25 0 0 -1.25 187.263 0)"/><path d="m0 0-135.503-166.975 159.107 25.352L0 0Z" style="fill:#c4c4c4;fill-opacity:1;fill-rule:nonzero;stroke:none" transform="matrix(1.25 0 0 -1.25 344.513 508.9)"/><path d="m0 0 120.642-48.082 11.364 152.988L0 0Z" style="fill:#b6b6b6;fill-opacity:1;fill-rule:nonzero;stroke:none" transform="matrix(1.25 0 0 -1.25 209.01 817.06)"/><path d="m0 0 27.101-79.554L159.107 25.352 0 0Z" style="fill:#bdbdbd;fill-opacity:1;fill-rule:nonzero;stroke:none" transform="matrix(1.25 0 0 -1.25 175.134 717.618)"/><path d="m0 0 82.176-163.478 38.466 115.396L0 0Z" style="fill:#adadad;fill-opacity:1;fill-rule:nonzero;stroke:none" transform="matrix(1.25 0 0 -1.25 209.01 817.06)"/><path d="M0 0h82.13L-30.72 49.57 0 0Z" style="fill:#7f7f7f;fill-opacity:1;fill-rule:nonzero;stroke:none" transform="matrix(1.25 0 0 -1.25 239.762 1350)"/><path d="M0 0h45.059L14.34 49.57 0 0Z" style="fill:#7d7d7d;fill-opacity:1;fill-rule:nonzero;stroke:none" transform="matrix(1.25 0 0 -1.25 183.438 1350)"/><path d="m0 0-101.409-149.491 162.604 4.371L0 0Z" style="fill:#d6d6d6;fill-opacity:1;fill-rule:nonzero;stroke:none" transform="matrix(1.25 0 0 -1.25 268.02 327.5)"/><path d="m0 0-34.094-194.95 116.27 31.472L0 0Z" style="fill:#aaa;fill-opacity:1;fill-rule:nonzero;stroke:none" transform="matrix(1.25 0 0 -1.25 209.01 817.06)"/><path d="m0 0 22.73-117.145L124.138 32.346 0 0Z" style="fill:#dbdbdb;fill-opacity:1;fill-rule:nonzero;stroke:none" transform="matrix(1.25 0 0 -1.25 112.846 367.932)"/><path d="m0 0 87.421-63.818 20.983 119.769L0 0Z" style="fill:#e8e8e8;fill-opacity:1;fill-rule:nonzero;stroke:none" transform="matrix(1.25 0 0 -1.25 158.742 141.729)"/><path d="m0 0-40.216-75.183L68.189-19.232 0 0Z" style="fill:#ececec;fill-opacity:1;fill-rule:nonzero;stroke:none" transform="matrix(1.25 0 0 -1.25 209.012 47.75)"/><path d="m0 0 97.038-47.208 19.233 78.68L0 0Z" style="fill:#a2a2a2;fill-opacity:1;fill-rule:nonzero;stroke:none" transform="matrix(1.25 0 0 -1.25 166.392 1060.747)"/><path d="m0 0 14.862-92.667 82.176 45.459L0 0Z" style="fill:#9f9f9f;fill-opacity:1;fill-rule:nonzero;stroke:none" transform="matrix(1.25 0 0 -1.25 166.392 1060.747)"/><path d="m0 0 124.138 32.346v84.799L0 0Z" style="fill:#e0e0e0;fill-opacity:1;fill-rule:nonzero;stroke:none" transform="matrix(1.25 0 0 -1.25 112.846 367.932)"/><path d="m0 0-36.717-180.962L87.421-63.818 0 0Z" style="fill:#e5e5e5;fill-opacity:1;fill-rule:nonzero;stroke:none" transform="matrix(1.25 0 0 -1.25 158.742 141.729)"/><path d="m0 0 54.201-46.333 36.717 180.962L0 0Z" style="fill:#e4e4e4;fill-opacity:1;fill-rule:nonzero;stroke:none" transform="matrix(1.25 0 0 -1.25 45.094 310.015)"/><path d="m0 0-84.799-34.969 111.9-127.635L0 0Z" style="fill:#ccc;fill-opacity:1;fill-rule:nonzero;stroke:none" transform="matrix(1.25 0 0 -1.25 141.258 514.363)"/><path d="m0 0-103.157-76.931L13.115-89.165 0 0Z" style="fill:#919191;fill-opacity:1;fill-rule:nonzero;stroke:none" transform="matrix(1.25 0 0 -1.25 184.969 1176.58)"/><path d="M0 0h79.671L94.01 49.57-22.262 61.805 0 0Z" style="fill:#858585;fill-opacity:1;fill-rule:nonzero;stroke:none" transform="matrix(1.25 0 0 -1.25 83.85 1350)"/><path d="M0 0v-9.64l126.994-60.833L167.209 4.71 0 0Z" style="fill:#efefef;fill-opacity:1;fill-rule:nonzero;stroke:none" transform="matrix(1.25 0 0 -1.25 0 53.638)"/><path d="m0 0-6.28-10.79v-32.12l167.209 4.709L143.53 0H0Z" style="fill:#f4f4f4;fill-opacity:1;fill-rule:nonzero;stroke:none" transform="matrix(1.25 0 0 -1.25 7.85 0)"/><path d="m0 0 118.019-43.711 34.094 194.95L0 0Z" style="fill:#adadad;fill-opacity:1;fill-rule:nonzero;stroke:none" transform="matrix(1.25 0 0 -1.25 18.868 1006.109)"/><path d="m0 0 13.113-131.132L165.227 20.107 0 0Z" style="fill:#b4b4b4;fill-opacity:1;fill-rule:nonzero;stroke:none" transform="matrix(1.25 0 0 -1.25 2.477 842.194)"/><path d="m0 0-138.126-99.66L27.101-79.554 0 0Z" style="fill:#bbb;fill-opacity:1;fill-rule:nonzero;stroke:none" transform="matrix(1.25 0 0 -1.25 175.134 717.618)"/><path d="M0 0v-10.79L6.28 0H0Z" style="fill:#f8f8f8;fill-opacity:1;fill-rule:nonzero;stroke:none" transform="scale(1.25 -1.25)"/><path d="M0 0v-27.24l140.107-55.725L28.208 44.671 0 0Z" style="fill:#c9c9c9;fill-opacity:1;fill-rule:nonzero;stroke:none" transform="matrix(1.25 0 0 -1.25 0 613.913)"/><path d="M0 0v-10.45l147.975 26.765-14.861 92.668L0 0Z" style="fill:#9d9d9d;fill-opacity:1;fill-rule:nonzero;stroke:none" transform="matrix(1.25 0 0 -1.25 0 1196.975)"/><path d="M0 0v-15.6l44.817-34.565 103.158 76.93L0 0Z" style="fill:#969696;fill-opacity:1;fill-rule:nonzero;stroke:none" transform="matrix(1.25 0 0 -1.25 0 1210.038)"/><path d="M0 0h40.1L17.837 61.805 0 0Z" style="fill:gray;fill-opacity:1;fill-rule:nonzero;stroke:none" transform="matrix(1.25 0 0 -1.25 33.725 1350)"/><path d="M0 0v-73.04L133.114 35.942 15.095 79.653 0 0Z" style="fill:#a4a4a4;fill-opacity:1;fill-rule:nonzero;stroke:none" transform="matrix(1.25 0 0 -1.25 0 1105.675)"/><path d="m0 0 1.981-20.255 138.126 99.66L0 135.13V0Z" style="fill:#c2c2c2;fill-opacity:1;fill-rule:nonzero;stroke:none" transform="matrix(1.25 0 0 -1.25 0 816.875)"/><path d="m0 0 126.994-10.653L0 50.179V0Z" style="fill:#efefef;fill-opacity:1;fill-rule:nonzero;stroke:none" transform="matrix(1.25 0 0 -1.25 0 128.412)"/><path d="m0 0 36.076-96.212 90.918 134.629L0 49.071V0Z" style="fill:#eaeaea;fill-opacity:1;fill-rule:nonzero;stroke:none" transform="matrix(1.25 0 0 -1.25 0 189.75)"/><path d="m0 0-62.069-152.113 84.799 34.968L0 0Z" style="fill:#d7d7d7;fill-opacity:1;fill-rule:nonzero;stroke:none" transform="matrix(1.25 0 0 -1.25 112.846 367.932)"/><path d="m0 0-7.868-198.447L54.201-46.333 0 0Z" style="fill:#ddd;fill-opacity:1;fill-rule:nonzero;stroke:none" transform="matrix(1.25 0 0 -1.25 45.094 310.015)"/><path d="M0 0v-51.32L28.208-6.649l7.868 198.447L0 0Z" style="fill:#d6d6d6;fill-opacity:1;fill-rule:nonzero;stroke:none" transform="matrix(1.25 0 0 -1.25 0 549.763)"/><path d="M0 0h26.98l17.837 61.805L0 96.37V0Z" style="fill:#898989;fill-opacity:1;fill-rule:nonzero;stroke:none" transform="matrix(1.25 0 0 -1.25 0 1350)"/><path d="m0 0 36.076 191.798L0 288.01V0Z" style="fill:#e1e1e1;fill-opacity:1;fill-rule:nonzero;stroke:none" transform="matrix(1.25 0 0 -1.25 0 549.763)"/><path d="M0 0v-178.73l15.095 79.653L1.981 32.054 0 0Z" style="fill:#ababab;fill-opacity:1;fill-rule:nonzero;stroke:none" transform="matrix(1.25 0 0 -1.25 0 882.262)"/><path d="m0 0 1.981 32.054L0 52.31V0Z" style="fill:#b5b5b5;fill-opacity:1;fill-rule:nonzero;stroke:none" transform="matrix(1.25 0 0 -1.25 0 882.262)"/></svg>