<svg xmlns="http://www.w3.org/2000/svg" width="334.789" height="150.658" viewBox="0 0 88.58 39.861"><path d="m87.287 161.475 5.717-9.866 23.017-.003 5.686 9.965.007 19.931-5.691 9.958-23.012.008-5.782-9.965z" style="display:inline;fill:#4d4d4d;fill-opacity:1;stroke-width:.264583" transform="translate(-81.492 -151.606)"/><path d="M87.23 181.5h10.374l-5.698-10.041 4.633-9.982-9.252-.002-5.795 10.065" style="fill:#ededed;fill-opacity:1;fill-rule:nonzero;stroke:none;stroke-width:.330729" transform="translate(-81.492 -151.606)"/><path d="M100.75 181.5h7.583l6.705-9.774-6.588-10.156h-8.922l-5.373 9.815z" style="fill:#e0e0e0;fill-opacity:1;fill-rule:nonzero;stroke:none;stroke-width:.330729" transform="translate(-81.492 -151.606)"/><path d="m81.492 171.54 5.738 9.963h10.374l-5.636-9.93z" style="fill:#acacac;fill-opacity:1;fill-rule:nonzero;stroke:none;stroke-width:.330729" transform="translate(-81.492 -151.606)"/><path d="m94.266 171.541 6.484 9.962h7.582l6.601-9.958z" style="fill:#9e9e9e;fill-opacity:1;fill-rule:nonzero;stroke:none;stroke-width:.330729" transform="translate(-81.492 -151.606)"/><path d="m96.834 171.547-1.958.57-1.877-.572 7.667-13.289 1.918 3.317" style="fill:#00b8e3;fill-opacity:1;fill-rule:nonzero;stroke:none;stroke-width:.330729" transform="translate(-81.492 -151.606)"/><path d="m102.576 181.5-1.908 3.333-5.093-5.488-2.58-7.796v-.004h3.838" style="fill:#33c6e9;fill-opacity:1;fill-rule:nonzero;stroke:none;stroke-width:.330729" transform="translate(-81.492 -151.606)"/><path d="M92.999 171.545h-.003v.003l-1.917 3.322-1.925-3.307s1.313-2.28 1.952-3.386l5.728-9.92h3.834" style="fill:#008aaa;fill-opacity:1;fill-rule:nonzero;stroke:none;stroke-width:.330729" transform="translate(-81.492 -151.606)"/><path d="M114.096 181.5h11.612l44.35-9.925-5.727-10.005h-50.235z" style="fill:#d4d4d4;fill-opacity:1;fill-rule:nonzero;stroke:none;stroke-width:.330729" transform="translate(-81.492 -151.606)"/><path d="M114.096 171.573v9.93h50.351l5.624-9.93z" style="fill:#919191;fill-opacity:1;fill-rule:nonzero;stroke:none;stroke-width:.330729" transform="translate(-81.492 -151.606)"/><path d="M100.67 184.836h-3.837l-5.755-9.967 1.918-3.32z" style="fill:#00b8e3;fill-opacity:1;fill-rule:nonzero;stroke:none;stroke-width:.330729" transform="translate(-81.492 -151.606)"/><path d="m116.01 171.545-7.669 13.288c-.705-1.035-1.913-3.33-1.913-3.33l5.753-9.959z" style="fill:#008aaa;fill-opacity:1;fill-rule:nonzero;stroke:none;stroke-width:.330729" transform="translate(-81.492 -151.606)"/><path d="m112.172 184.834-3.831-.001 7.67-13.288 1.917-3.318 1.922 3.341m-3.84-.023h-3.828l-5.755-9.973 1.905-3.314 4.658 5.922z" style="fill:#00b8e3;fill-opacity:1;fill-rule:nonzero;stroke:none;stroke-width:.330729" transform="translate(-81.492 -151.606)"/><path d="M117.928 168.224v.003l-1.918 3.318-7.677-13.286 3.841.002z" style="fill:#33c6e9;fill-opacity:1;fill-rule:nonzero;stroke:none;stroke-width:.330729" transform="translate(-81.492 -151.606)"/><path d="m169.97 171.613.003.004c.006-.005-.002-.003-.002-.004zm-44.855 4.273a.365.365 0 0 0-.314.182l-.632 1.094-2.55 4.382h42.732l1.634-2.887a.356.356 0 0 1-.584-.043l-.575-.995-.897-1.551a.361.361 0 0 0-.314-.182h-3.364a.365.365 0 0 0-.314.182l-1.475 2.55a.363.363 0 0 1-.628 0l-1.442-2.49-.033-.06a.357.357 0 0 0-.314-.182h-1.009a.361.361 0 0 0-.314.182l-1.475 2.55a.363.363 0 0 1-.629 0l-1.472-2.55a.361.361 0 0 0-.314-.182h-5.367a.365.365 0 0 0-.315.182l-1.471 2.55a.363.363 0 0 1-.629 0l-1.471-2.55a.366.366 0 0 0-.318-.182h-1.008a.361.361 0 0 0-.315.182l-.661 1.144-.814 1.406a.363.363 0 0 1-.628 0l-1.475-2.55a.361.361 0 0 0-.314-.182h-3.364a.365.365 0 0 0-.314.182l-1.472 2.55a.363.363 0 0 1-.628 0l-.258-.444-1.217-2.106a.357.357 0 0 0-.314-.182z" style="fill:#4d4d4d;fill-opacity:1;fill-rule:nonzero;stroke:none;stroke-width:.330729" transform="translate(-81.492 -151.606)"/><path d="m168.275 168.63.307.529h-42.75l-.3-.53zm-1.389-2.446.307.53h-42.75l-.3-.53zm-1.4-2.446.307.53h-42.75l-.3-.53z" style="color:#000;fill:#9e9e9e;fill-opacity:1;-inkscape-stroke:none" transform="translate(-81.492 -151.606)"/></svg>