<?xml version="1.0" encoding="UTF-8" standalone="no"?>
<!-- Created with Inkscape (http://www.inkscape.org/) -->

<svg
   width="100mm"
   height="50mm"
   viewBox="0 0 100 50"
   version="1.1"
   id="svg1"
   sodipodi:docname="logo-key-fixed.svg"
   inkscape:version="1.3 (0e150ed6c4, 2023-07-21)"
   xmlns:inkscape="http://www.inkscape.org/namespaces/inkscape"
   xmlns:sodipodi="http://sodipodi.sourceforge.net/DTD/sodipodi-0.dtd"
   xmlns="http://www.w3.org/2000/svg"
   xmlns:svg="http://www.w3.org/2000/svg">
  <sodipodi:namedview
     id="namedview1"
     pagecolor="#ffffff"
     bordercolor="#000000"
     borderopacity="0.25"
     inkscape:showpageshadow="2"
     inkscape:pageopacity="0.0"
     inkscape:pagecheckerboard="0"
     inkscape:deskcolor="#d1d1d1"
     inkscape:document-units="mm"
     inkscape:zoom="1.0141844"
     inkscape:cx="122.75874"
     inkscape:cy="97.12238"
     inkscape:window-width="1920"
     inkscape:window-height="1011"
     inkscape:window-x="0"
     inkscape:window-y="0"
     inkscape:window-maximized="1"
     inkscape:current-layer="layer1" />
  <defs
     id="defs1" />
  <g
     inkscape:label="Layer 1"
     inkscape:groupmode="layer"
     id="layer1"
     transform="translate(-76.99375,-141.02292)">
    <g
       id="g14">
      <path
         style="display:inline;fill:#4d4d4d;fill-opacity:1;stroke-width:0.264583"
         d="m 87.216827,156.10324 5.716107,-9.86598 23.017736,-0.003 5.68562,9.96433 0.007,19.93186 -5.69122,9.95731 -23.011567,0.008 -5.782028,-9.96513 z"
         id="path58"
         sodipodi:nodetypes="ccccccccc" />
      <path
         id="path59"
         style="fill:#ededed;fill-opacity:1;fill-rule:nonzero;stroke:none;stroke-width:0.330729"
         d="m 87.158959,176.12808 h 3.672903 6.701157 l -5.698058,-10.04129 4.633516,-9.98178 -9.252109,-0.002 -5.795289,10.0647"
         sodipodi:nodetypes="ccccccc" />
      <path
         id="path60"
         style="fill:#dedede;fill-opacity:1;fill-rule:nonzero;stroke:none;stroke-width:0.330729"
         d="m 100.67915,176.1278 h 7.58283 l 6.70523,-9.77339 -6.5883,-10.15614 h -8.921388 l -5.372837,9.81484 z"
         sodipodi:nodetypes="ccccccc" />
      <path
         id="path61"
         style="fill:#bababa;fill-opacity:1;fill-rule:nonzero;stroke:none;stroke-width:0.330729"
         d="m 81.421122,166.16745 5.738081,9.96381 h 10.374043 l -5.635832,-9.93066 z"
         sodipodi:nodetypes="ccccc" />
      <path
         id="path62"
         style="fill:#acacac;fill-opacity:1;fill-rule:nonzero;stroke:none;stroke-width:0.330729"
         d="m 94.195061,166.16909 6.484249,9.96217 h 7.58248 l 6.60081,-9.95852 z"
         sodipodi:nodetypes="ccccc" />
      <path
         d="m 96.763385,166.17531 -1.957622,0.56917 -1.877451,-0.57128 7.666788,-13.28881 1.91828,3.31671"
         style="fill:#00b8e3;fill-opacity:1;fill-rule:nonzero;stroke:none;stroke-width:0.330729"
         id="path63"
         inkscape:connector-curvature="0"
         sodipodi:nodetypes="ccccc" />
      <path
         d="m 102.50581,176.12828 -1.90814,3.33245 -5.093354,-5.48732 -2.57941,-7.79667 v -0.004 h 3.837287"
         style="fill:#33c6e9;fill-opacity:1;fill-rule:nonzero;stroke:none;stroke-width:0.330729"
         id="path64"
         inkscape:connector-curvature="0"
         sodipodi:nodetypes="cccccc" />
      <path
         d="m 92.928313,166.17316 h -0.0033 v 0.003 l -1.917237,3.32151 -1.924936,-3.30677 c 0,0 1.312969,-2.27907 1.952058,-3.38619 l 5.727901,-9.91993 3.834121,-3.2e-4"
         style="fill:#008aaa;fill-opacity:1;fill-rule:nonzero;stroke:none;stroke-width:0.330729"
         id="path65"
         inkscape:connector-curvature="0"
         sodipodi:nodetypes="cccccccc" />
      <path
         id="path66"
         style="fill:#d1d1d1;fill-opacity:1;fill-rule:nonzero;stroke:none;stroke-width:0.330729"
         d="m 114.02578,176.1278 h 11.61169 l 44.34995,-9.92476 -5.72722,-10.00477 h -50.23442 z"
         sodipodi:nodetypes="cccccc" />
      <path
         id="path67"
         style="fill:#9e9e9e;fill-opacity:1;fill-rule:nonzero;stroke:none;stroke-width:0.330729"
         d="m 114.02578,166.2006 v 9.93066 h 50.35098 l 5.62401,-9.93066 z"
         sodipodi:nodetypes="ccccc" />
      <path
         d="m 100.59899,179.46415 -3.836976,2e-5 -5.754246,-9.96671 1.917237,-3.32118 z"
         style="fill:#00b8e3;fill-opacity:1;fill-rule:nonzero;stroke:none;stroke-width:0.330729"
         id="path68"
         inkscape:connector-curvature="0"
         sodipodi:nodetypes="ccccc" />
      <path
         d="m 115.93989,166.17326 -7.669,13.28805 c -0.70503,-1.03567 -1.91339,-3.33061 -1.91339,-3.33061 l 5.75328,-9.95873 z"
         style="fill:#008aaa;fill-opacity:1;fill-rule:nonzero;stroke:none;stroke-width:0.330729"
         id="path69"
         inkscape:connector-curvature="0"
         sodipodi:nodetypes="ccccc" />
      <path
         d="m 112.10102,179.46169 -3.83099,-9.6e-4 7.66979,-13.28751 1.91723,-3.31787 1.9219,3.3408"
         style="fill:#00b8e3;fill-opacity:1;fill-rule:nonzero;stroke:none;stroke-width:0.330729"
         id="path70"
         inkscape:connector-curvature="0"
         sodipodi:nodetypes="ccccc" />
      <path
         d="m 115.93989,166.17326 -3.82874,-7.2e-4 -5.75475,-9.97269 1.90501,-3.31383 4.65769,5.92212 z"
         style="fill:#00b8e3;fill-opacity:1;fill-rule:nonzero;stroke:none;stroke-width:0.330729"
         id="path71"
         inkscape:connector-curvature="0"
         sodipodi:nodetypes="cccccc" />
      <path
         d="m 117.85696,162.85191 v 0.003 l -1.91724,3.31821 -7.67733,-13.28601 3.84145,0.002 z"
         style="fill:#33c6e9;fill-opacity:1;fill-rule:nonzero;stroke:none;stroke-width:0.330729"
         id="path72"
         inkscape:connector-curvature="0"
         sodipodi:nodetypes="cccccc" />
      <path
         id="path1"
         style="fill:#4d4d4d;fill-opacity:1;fill-rule:nonzero;stroke:none;stroke-width:0.330729"
         d="m 169.90004,166.24095 0.002,0.004 c 0.006,-0.005 -0.002,-0.003 -0.002,-0.004 z m -44.85566,4.27313 c -0.12898,0 -0.24809,0.0695 -0.31419,0.1819 l -0.632,1.09451 -2.55023,4.38112 h 42.73227 l 1.63453,-2.88612 c -0.15644,0.18667 -0.45665,0.17874 -0.58446,-0.0434 l -0.57516,-0.99529 -0.89659,-1.55081 c -0.0628,-0.11241 -0.1852,-0.1819 -0.31419,-0.1819 h -3.36362 c -0.12899,0 -0.24809,0.0695 -0.31419,0.1819 l -1.47485,2.54971 c -0.1389,0.24143 -0.48948,0.24143 -0.62838,0 l -1.44178,-2.49028 -0.0331,-0.0594 c -0.0628,-0.11241 -0.1819,-0.1819 -0.31419,-0.1819 h -1.00873 c -0.12898,0 -0.25139,0.0695 -0.31419,0.1819 l -1.47536,2.54971 c -0.13891,0.24143 -0.48948,0.24143 -0.62839,0 l -1.47174,-2.54971 c -0.0628,-0.11241 -0.18521,-0.1819 -0.31419,-0.1819 h -0.0331 -3.41943 -1.91512 c -0.12898,0 -0.248,0.0695 -0.3142,0.1819 l -1.47174,2.54971 c -0.1389,0.24143 -0.48948,0.24143 -0.62839,0 l -1.47174,-2.54971 c -0.0661,-0.11241 -0.185,-0.1819 -0.3173,-0.1819 h -1.00872 c -0.12898,0 -0.25139,0.0695 -0.31419,0.1819 l -0.66146,1.14412 -0.8139,1.40559 c -0.13891,0.24143 -0.48948,0.24143 -0.62839,0 l -1.47485,-2.54971 c -0.0628,-0.11241 -0.18521,-0.1819 -0.31419,-0.1819 h -1.25367 -2.10995 c -0.12898,0 -0.24809,0.0695 -0.31419,0.1819 l -1.47174,2.54971 c -0.1389,0.24143 -0.48949,0.24143 -0.62839,0 l -0.25787,-0.44338 -1.21698,-2.10633 c -0.0628,-0.11241 -0.1819,-0.1819 -0.31419,-0.1819 z"
         sodipodi:nodetypes="cccsccccccccsscccccssccccsccsccccsscccccscscccccss" />
      <path
         style="color:#000000;fill:#9e9e9e;fill-opacity:1;-inkscape-stroke:none"
         d="m 168.20489,163.25739 0.3067,0.52929 h -42.74945 l -0.30083,-0.52929 z"
         id="path9"
         sodipodi:nodetypes="ccccc" />
      <path
         style="color:#000000;fill:#9e9e9e;fill-opacity:1;-inkscape-stroke:none"
         d="m 166.81522,160.8118 0.3067,0.52929 h -42.74945 l -0.30083,-0.52929 z"
         id="path10"
         sodipodi:nodetypes="ccccc" />
      <path
         style="color:#000000;fill:#9e9e9e;fill-opacity:1;-inkscape-stroke:none"
         d="m 165.41565,158.36621 0.3067,0.52929 H 122.9729 l -0.30083,-0.52929 z"
         id="path11"
         sodipodi:nodetypes="ccccc" />
    </g>
  </g>
</svg>
